<svg width="1440" height="1024" viewBox="0 0 1440 1024" fill="none" xmlns="http://www.w3.org/2000/svg">
<line x1="1440" y1="7.27212" x2="-3.90939e-08" y2="7.27204" stroke="#114F57" stroke-opacity="0.1" stroke-width="0.552535"/>
<line x1="1440" y1="17.2724" x2="-3.90939e-08" y2="17.2723" stroke="#114F57" stroke-opacity="0.1" stroke-width="0.552535"/>
<line x1="1440" y1="27.2724" x2="-3.90939e-08" y2="27.2723" stroke="#114F57" stroke-opacity="0.1" stroke-width="0.552535"/>
<line x1="1440" y1="37.2724" x2="-3.90939e-08" y2="37.2723" stroke="#114F57" stroke-opacity="0.1" stroke-width="0.552535"/>
<line x1="1440" y1="47.2726" x2="-3.90939e-08" y2="47.2725" stroke="#114F57" stroke-opacity="0.1" stroke-width="0.552535"/>
<line x1="1440" y1="57.2726" x2="-3.90939e-08" y2="57.2725" stroke="#114F57" stroke-opacity="0.1" stroke-width="0.552535"/>
<line x1="1440" y1="67.2726" x2="-3.90939e-08" y2="67.2725" stroke="#114F57" stroke-opacity="0.1" stroke-width="0.552535"/>
<line x1="1440" y1="77.2728" x2="-3.90939e-08" y2="77.2728" stroke="#114F57" stroke-opacity="0.1" stroke-width="0.552535"/>
<line x1="1440" y1="87.2728" x2="-3.90939e-08" y2="87.2728" stroke="#114F57" stroke-opacity="0.1" stroke-width="0.552535"/>
<line x1="1440" y1="97.2728" x2="-3.90939e-08" y2="97.2728" stroke="#114F57" stroke-opacity="0.1" stroke-width="0.552535"/>
<line x1="1440" y1="107.273" x2="-3.90939e-08" y2="107.273" stroke="#114F57" stroke-opacity="0.1" stroke-width="0.552535"/>
<line x1="1440" y1="117.273" x2="-3.90939e-08" y2="117.273" stroke="#114F57" stroke-opacity="0.1" stroke-width="0.552535"/>
<line x1="1440" y1="127.273" x2="-3.90939e-08" y2="127.273" stroke="#114F57" stroke-opacity="0.1" stroke-width="0.552535"/>
<line x1="1440" y1="137.273" x2="-3.90939e-08" y2="137.273" stroke="#114F57" stroke-opacity="0.1" stroke-width="0.552535"/>
<line x1="1440" y1="147.273" x2="-3.90939e-08" y2="147.273" stroke="#114F57" stroke-opacity="0.1" stroke-width="0.552535"/>
<line x1="1440" y1="157.273" x2="-3.90939e-08" y2="157.273" stroke="#114F57" stroke-opacity="0.1" stroke-width="0.552535"/>
<line x1="1440" y1="167.274" x2="-3.90939e-08" y2="167.273" stroke="#114F57" stroke-opacity="0.1" stroke-width="0.552535"/>
<line x1="1440" y1="177.274" x2="-3.90939e-08" y2="177.273" stroke="#114F57" stroke-opacity="0.1" stroke-width="0.552535"/>
<line x1="1440" y1="187.274" x2="-3.90939e-08" y2="187.273" stroke="#114F57" stroke-opacity="0.1" stroke-width="0.552535"/>
<line x1="1440" y1="197.274" x2="-3.90939e-08" y2="197.274" stroke="#114F57" stroke-opacity="0.1" stroke-width="0.552535"/>
<line x1="1440" y1="207.274" x2="-3.90939e-08" y2="207.274" stroke="#114F57" stroke-opacity="0.1" stroke-width="0.552535"/>
<line x1="1440" y1="217.274" x2="-3.90939e-08" y2="217.274" stroke="#114F57" stroke-opacity="0.1" stroke-width="0.552535"/>
<line x1="1440" y1="227.274" x2="-3.90939e-08" y2="227.274" stroke="#114F57" stroke-opacity="0.1" stroke-width="0.552535"/>
<line x1="1440" y1="237.274" x2="-3.90939e-08" y2="237.274" stroke="#114F57" stroke-opacity="0.1" stroke-width="0.552535"/>
<line x1="1440" y1="247.274" x2="-3.90939e-08" y2="247.274" stroke="#114F57" stroke-opacity="0.1" stroke-width="0.552535"/>
<line x1="1440" y1="257.274" x2="-3.90939e-08" y2="257.274" stroke="#114F57" stroke-opacity="0.1" stroke-width="0.552535"/>
<line x1="1440" y1="267.274" x2="-3.90939e-08" y2="267.274" stroke="#114F57" stroke-opacity="0.1" stroke-width="0.552535"/>
<line x1="1440" y1="277.274" x2="-3.90939e-08" y2="277.274" stroke="#114F57" stroke-opacity="0.1" stroke-width="0.552535"/>
<line x1="1440" y1="287.274" x2="-3.90939e-08" y2="287.274" stroke="#114F57" stroke-opacity="0.1" stroke-width="0.552535"/>
<line x1="1440" y1="297.274" x2="-3.90939e-08" y2="297.274" stroke="#114F57" stroke-opacity="0.1" stroke-width="0.552535"/>
<line x1="1440" y1="307.275" x2="-3.90939e-08" y2="307.275" stroke="#114F57" stroke-opacity="0.1" stroke-width="0.552535"/>
<line x1="1440" y1="317.275" x2="-3.90939e-08" y2="317.275" stroke="#114F57" stroke-opacity="0.1" stroke-width="0.552535"/>
<line x1="1440" y1="327.275" x2="-3.90939e-08" y2="327.275" stroke="#114F57" stroke-opacity="0.1" stroke-width="0.552535"/>
<line x1="1440" y1="337.275" x2="-3.90939e-08" y2="337.275" stroke="#114F57" stroke-opacity="0.1" stroke-width="0.552535"/>
<line x1="1440" y1="347.275" x2="-3.90939e-08" y2="347.275" stroke="#114F57" stroke-opacity="0.1" stroke-width="0.552535"/>
<line x1="1440" y1="357.275" x2="-3.90939e-08" y2="357.275" stroke="#114F57" stroke-opacity="0.1" stroke-width="0.552535"/>
<line x1="1440" y1="367.275" x2="-3.90939e-08" y2="367.275" stroke="#114F57" stroke-opacity="0.1" stroke-width="0.552535"/>
<line x1="1440" y1="377.275" x2="-3.90939e-08" y2="377.275" stroke="#114F57" stroke-opacity="0.1" stroke-width="0.552535"/>
<line x1="1440" y1="387.275" x2="-3.90939e-08" y2="387.275" stroke="#114F57" stroke-opacity="0.1" stroke-width="0.552535"/>
<line x1="1440" y1="397.275" x2="-3.90939e-08" y2="397.275" stroke="#114F57" stroke-opacity="0.1" stroke-width="0.552535"/>
<line x1="1440" y1="407.276" x2="-3.90939e-08" y2="407.276" stroke="#114F57" stroke-opacity="0.1" stroke-width="0.552535"/>
<line x1="1440" y1="417.276" x2="-3.90939e-08" y2="417.276" stroke="#114F57" stroke-opacity="0.1" stroke-width="0.552535"/>
<line x1="1440" y1="427.276" x2="-3.90939e-08" y2="427.276" stroke="#114F57" stroke-opacity="0.1" stroke-width="0.552535"/>
<line x1="1440" y1="437.276" x2="-3.90939e-08" y2="437.276" stroke="#114F57" stroke-opacity="0.1" stroke-width="0.552535"/>
<line x1="1440" y1="447.276" x2="-3.90939e-08" y2="447.276" stroke="#114F57" stroke-opacity="0.1" stroke-width="0.552535"/>
<line x1="1440" y1="457.276" x2="-3.90939e-08" y2="457.276" stroke="#114F57" stroke-opacity="0.1" stroke-width="0.552535"/>
<line x1="1440" y1="467.276" x2="-3.90939e-08" y2="467.276" stroke="#114F57" stroke-opacity="0.1" stroke-width="0.552535"/>
<line x1="1440" y1="477.276" x2="-3.90939e-08" y2="477.276" stroke="#114F57" stroke-opacity="0.1" stroke-width="0.552535"/>
<line x1="1440" y1="487.276" x2="-3.90939e-08" y2="487.276" stroke="#114F57" stroke-opacity="0.1" stroke-width="0.552535"/>
<line x1="1440" y1="497.276" x2="-3.90939e-08" y2="497.276" stroke="#114F57" stroke-opacity="0.1" stroke-width="0.552535"/>
<line x1="1440" y1="507.276" x2="-3.90939e-08" y2="507.276" stroke="#114F57" stroke-opacity="0.1" stroke-width="0.552535"/>
<line x1="1440" y1="517.276" x2="-3.90939e-08" y2="517.276" stroke="#114F57" stroke-opacity="0.1" stroke-width="0.552535"/>
<line x1="1440" y1="527.277" x2="-3.90939e-08" y2="527.277" stroke="#114F57" stroke-opacity="0.1" stroke-width="0.552535"/>
<line x1="1440" y1="537.277" x2="-3.90939e-08" y2="537.277" stroke="#114F57" stroke-opacity="0.1" stroke-width="0.552535"/>
<line x1="1440" y1="547.277" x2="-3.90939e-08" y2="547.277" stroke="#114F57" stroke-opacity="0.1" stroke-width="0.552535"/>
<line x1="1440" y1="557.277" x2="-3.90939e-08" y2="557.277" stroke="#114F57" stroke-opacity="0.1" stroke-width="0.552535"/>
<line x1="1440" y1="567.277" x2="-3.90939e-08" y2="567.277" stroke="#114F57" stroke-opacity="0.1" stroke-width="0.552535"/>
<line x1="1440" y1="577.277" x2="-3.90939e-08" y2="577.277" stroke="#114F57" stroke-opacity="0.1" stroke-width="0.552535"/>
<line x1="1440" y1="587.277" x2="-3.90939e-08" y2="587.277" stroke="#114F57" stroke-opacity="0.1" stroke-width="0.552535"/>
<line x1="1440" y1="597.277" x2="-3.90939e-08" y2="597.277" stroke="#114F57" stroke-opacity="0.1" stroke-width="0.552535"/>
<line x1="1440" y1="607.277" x2="-3.90939e-08" y2="607.277" stroke="#114F57" stroke-opacity="0.1" stroke-width="0.552535"/>
<line x1="1440" y1="617.277" x2="-3.90939e-08" y2="617.277" stroke="#114F57" stroke-opacity="0.1" stroke-width="0.552535"/>
<line x1="1440" y1="627.277" x2="-3.90939e-08" y2="627.277" stroke="#114F57" stroke-opacity="0.1" stroke-width="0.552535"/>
<line x1="1440" y1="637.277" x2="-3.90939e-08" y2="637.277" stroke="#114F57" stroke-opacity="0.1" stroke-width="0.552535"/>
<line x1="1440" y1="647.277" x2="-3.90939e-08" y2="647.277" stroke="#114F57" stroke-opacity="0.1" stroke-width="0.552535"/>
<line x1="1440" y1="657.277" x2="-3.90939e-08" y2="657.277" stroke="#114F57" stroke-opacity="0.1" stroke-width="0.552535"/>
<line x1="1440" y1="667.277" x2="-3.90939e-08" y2="667.277" stroke="#114F57" stroke-opacity="0.1" stroke-width="0.552535"/>
<line x1="1440" y1="677.277" x2="-3.90939e-08" y2="677.277" stroke="#114F57" stroke-opacity="0.1" stroke-width="0.552535"/>
<line x1="1440" y1="687.278" x2="-3.90939e-08" y2="687.278" stroke="#114F57" stroke-opacity="0.1" stroke-width="0.552535"/>
<line x1="1440" y1="697.278" x2="-3.90939e-08" y2="697.278" stroke="#114F57" stroke-opacity="0.1" stroke-width="0.552535"/>
<line x1="1440" y1="707.278" x2="-3.90939e-08" y2="707.278" stroke="#114F57" stroke-opacity="0.1" stroke-width="0.552535"/>
<line x1="1440" y1="717.278" x2="-3.90939e-08" y2="717.278" stroke="#114F57" stroke-opacity="0.1" stroke-width="0.552535"/>
<line x1="1440" y1="727.278" x2="-3.90939e-08" y2="727.278" stroke="#114F57" stroke-opacity="0.1" stroke-width="0.552535"/>
<line x1="1440" y1="737.278" x2="-3.90939e-08" y2="737.278" stroke="#114F57" stroke-opacity="0.1" stroke-width="0.552535"/>
<line x1="1440" y1="747.278" x2="-3.90939e-08" y2="747.278" stroke="#114F57" stroke-opacity="0.1" stroke-width="0.552535"/>
<line x1="1440" y1="757.278" x2="-3.90939e-08" y2="757.278" stroke="#114F57" stroke-opacity="0.1" stroke-width="0.552535"/>
<line x1="1440" y1="767.278" x2="-3.90939e-08" y2="767.278" stroke="#114F57" stroke-opacity="0.1" stroke-width="0.552535"/>
<line x1="1440" y1="777.278" x2="-3.90939e-08" y2="777.278" stroke="#114F57" stroke-opacity="0.1" stroke-width="0.552535"/>
<line x1="1440" y1="787.278" x2="-3.90939e-08" y2="787.278" stroke="#114F57" stroke-opacity="0.1" stroke-width="0.552535"/>
<line x1="1440" y1="797.278" x2="-3.90939e-08" y2="797.278" stroke="#114F57" stroke-opacity="0.1" stroke-width="0.552535"/>
<line x1="1440" y1="807.278" x2="-3.90939e-08" y2="807.278" stroke="#114F57" stroke-opacity="0.1" stroke-width="0.552535"/>
<line x1="1440" y1="817.278" x2="-3.90939e-08" y2="817.278" stroke="#114F57" stroke-opacity="0.1" stroke-width="0.552535"/>
<line x1="1440" y1="827.278" x2="-3.90939e-08" y2="827.278" stroke="#114F57" stroke-opacity="0.1" stroke-width="0.552535"/>
<line x1="1440" y1="837.278" x2="-3.90939e-08" y2="837.278" stroke="#114F57" stroke-opacity="0.1" stroke-width="0.552535"/>
<line x1="1440" y1="847.279" x2="-3.90939e-08" y2="847.279" stroke="#114F57" stroke-opacity="0.1" stroke-width="0.552535"/>
<line x1="1440" y1="857.279" x2="-3.90939e-08" y2="857.279" stroke="#114F57" stroke-opacity="0.1" stroke-width="0.552535"/>
<line x1="1440" y1="867.279" x2="-3.90939e-08" y2="867.279" stroke="#114F57" stroke-opacity="0.1" stroke-width="0.552535"/>
<line x1="1440" y1="877.279" x2="-3.90939e-08" y2="877.279" stroke="#114F57" stroke-opacity="0.1" stroke-width="0.552535"/>
<line x1="1440" y1="887.279" x2="-3.90939e-08" y2="887.279" stroke="#114F57" stroke-opacity="0.1" stroke-width="0.552535"/>
<line x1="1440" y1="897.279" x2="-3.90939e-08" y2="897.279" stroke="#114F57" stroke-opacity="0.1" stroke-width="0.552535"/>
<line x1="1440" y1="907.279" x2="-3.90939e-08" y2="907.279" stroke="#114F57" stroke-opacity="0.1" stroke-width="0.552535"/>
<line x1="1440" y1="917.279" x2="-3.90939e-08" y2="917.279" stroke="#114F57" stroke-opacity="0.1" stroke-width="0.552535"/>
<line x1="1440" y1="927.279" x2="-3.90939e-08" y2="927.279" stroke="#114F57" stroke-opacity="0.1" stroke-width="0.552535"/>
<line x1="1440" y1="937.279" x2="-3.90939e-08" y2="937.279" stroke="#114F57" stroke-opacity="0.1" stroke-width="0.552535"/>
<line x1="1440" y1="947.279" x2="-3.90939e-08" y2="947.279" stroke="#114F57" stroke-opacity="0.1" stroke-width="0.552535"/>
<line x1="1440" y1="957.279" x2="-3.90939e-08" y2="957.279" stroke="#114F57" stroke-opacity="0.1" stroke-width="0.552535"/>
<line x1="1440" y1="967.279" x2="-3.90939e-08" y2="967.279" stroke="#114F57" stroke-opacity="0.1" stroke-width="0.552535"/>
<line x1="1440" y1="977.279" x2="-3.90939e-08" y2="977.279" stroke="#114F57" stroke-opacity="0.1" stroke-width="0.552535"/>
<line x1="1440" y1="987.279" x2="-3.90939e-08" y2="987.279" stroke="#114F57" stroke-opacity="0.1" stroke-width="0.552535"/>
<line x1="1440" y1="997.279" x2="-3.90939e-08" y2="997.279" stroke="#114F57" stroke-opacity="0.1" stroke-width="0.552535"/>
<line x1="1440" y1="1007.28" x2="-3.90939e-08" y2="1007.28" stroke="#114F57" stroke-opacity="0.1" stroke-width="0.552535"/>
<line x1="1440" y1="1017.28" x2="-3.90939e-08" y2="1017.28" stroke="#114F57" stroke-opacity="0.1" stroke-width="0.552535"/>
<line x1="1434.73" y1="1024" x2="1434.73" y2="-5.117e-08" stroke="#114F57" stroke-opacity="0.1" stroke-width="0.552535"/>
<line x1="1424.73" y1="1024" x2="1424.73" y2="-5.117e-08" stroke="#114F57" stroke-opacity="0.1" stroke-width="0.552535"/>
<line x1="1414.73" y1="1024" x2="1414.73" y2="-5.117e-08" stroke="#114F57" stroke-opacity="0.1" stroke-width="0.552535"/>
<line x1="1404.73" y1="1024" x2="1404.73" y2="-5.117e-08" stroke="#114F57" stroke-opacity="0.1" stroke-width="0.552535"/>
<line x1="1394.73" y1="1024" x2="1394.73" y2="-5.117e-08" stroke="#114F57" stroke-opacity="0.1" stroke-width="0.552535"/>
<line x1="1384.73" y1="1024" x2="1384.73" y2="-5.117e-08" stroke="#114F57" stroke-opacity="0.1" stroke-width="0.552535"/>
<line x1="1374.73" y1="1024" x2="1374.73" y2="-5.117e-08" stroke="#114F57" stroke-opacity="0.1" stroke-width="0.552535"/>
<line x1="1364.73" y1="1024" x2="1364.73" y2="-5.117e-08" stroke="#114F57" stroke-opacity="0.1" stroke-width="0.552535"/>
<line x1="1354.73" y1="1024" x2="1354.73" y2="-5.117e-08" stroke="#114F57" stroke-opacity="0.1" stroke-width="0.552535"/>
<line x1="1344.73" y1="1024" x2="1344.73" y2="-5.117e-08" stroke="#114F57" stroke-opacity="0.1" stroke-width="0.552535"/>
<line x1="1334.73" y1="1024" x2="1334.73" y2="-5.117e-08" stroke="#114F57" stroke-opacity="0.1" stroke-width="0.552535"/>
<line x1="1324.73" y1="1024" x2="1324.73" y2="-5.117e-08" stroke="#114F57" stroke-opacity="0.1" stroke-width="0.552535"/>
<line x1="1314.73" y1="1024" x2="1314.73" y2="-5.117e-08" stroke="#114F57" stroke-opacity="0.1" stroke-width="0.552535"/>
<line x1="1304.73" y1="1024" x2="1304.73" y2="-5.117e-08" stroke="#114F57" stroke-opacity="0.1" stroke-width="0.552535"/>
<line x1="1294.73" y1="1024" x2="1294.73" y2="-5.117e-08" stroke="#114F57" stroke-opacity="0.1" stroke-width="0.552535"/>
<line x1="1284.73" y1="1024" x2="1284.73" y2="-5.117e-08" stroke="#114F57" stroke-opacity="0.1" stroke-width="0.552535"/>
<line x1="1274.73" y1="1024" x2="1274.73" y2="-5.117e-08" stroke="#114F57" stroke-opacity="0.1" stroke-width="0.552535"/>
<line x1="1264.73" y1="1024" x2="1264.73" y2="-5.117e-08" stroke="#114F57" stroke-opacity="0.1" stroke-width="0.552535"/>
<line x1="1254.73" y1="1024" x2="1254.73" y2="-5.117e-08" stroke="#114F57" stroke-opacity="0.1" stroke-width="0.552535"/>
<line x1="1244.73" y1="1024" x2="1244.73" y2="-5.117e-08" stroke="#114F57" stroke-opacity="0.1" stroke-width="0.552535"/>
<line x1="1234.73" y1="1024" x2="1234.73" y2="-5.117e-08" stroke="#114F57" stroke-opacity="0.1" stroke-width="0.552535"/>
<line x1="1224.73" y1="1024" x2="1224.73" y2="-5.117e-08" stroke="#114F57" stroke-opacity="0.1" stroke-width="0.552535"/>
<line x1="1214.73" y1="1024" x2="1214.73" y2="-5.117e-08" stroke="#114F57" stroke-opacity="0.1" stroke-width="0.552535"/>
<line x1="1204.73" y1="1024" x2="1204.73" y2="-5.117e-08" stroke="#114F57" stroke-opacity="0.1" stroke-width="0.552535"/>
<line x1="1194.73" y1="1024" x2="1194.73" y2="-5.117e-08" stroke="#114F57" stroke-opacity="0.1" stroke-width="0.552535"/>
<line x1="1184.73" y1="1024" x2="1184.73" y2="-5.117e-08" stroke="#114F57" stroke-opacity="0.1" stroke-width="0.552535"/>
<line x1="1174.73" y1="1024" x2="1174.73" y2="-5.117e-08" stroke="#114F57" stroke-opacity="0.1" stroke-width="0.552535"/>
<line x1="1164.73" y1="1024" x2="1164.73" y2="-5.117e-08" stroke="#114F57" stroke-opacity="0.1" stroke-width="0.552535"/>
<line x1="1154.73" y1="1024" x2="1154.73" y2="-5.117e-08" stroke="#114F57" stroke-opacity="0.1" stroke-width="0.552535"/>
<line x1="1144.73" y1="1024" x2="1144.73" y2="-5.117e-08" stroke="#114F57" stroke-opacity="0.1" stroke-width="0.552535"/>
<line x1="1134.73" y1="1024" x2="1134.73" y2="-5.117e-08" stroke="#114F57" stroke-opacity="0.1" stroke-width="0.552535"/>
<line x1="1124.73" y1="1024" x2="1124.73" y2="-5.117e-08" stroke="#114F57" stroke-opacity="0.1" stroke-width="0.552535"/>
<line x1="1114.73" y1="1024" x2="1114.73" y2="-5.117e-08" stroke="#114F57" stroke-opacity="0.1" stroke-width="0.552535"/>
<line x1="1104.73" y1="1024" x2="1104.73" y2="-5.117e-08" stroke="#114F57" stroke-opacity="0.1" stroke-width="0.552535"/>
<line x1="1094.73" y1="1024" x2="1094.73" y2="-5.117e-08" stroke="#114F57" stroke-opacity="0.1" stroke-width="0.552535"/>
<line x1="1084.73" y1="1024" x2="1084.73" y2="-5.117e-08" stroke="#114F57" stroke-opacity="0.1" stroke-width="0.552535"/>
<line x1="1074.73" y1="1024" x2="1074.73" y2="-5.117e-08" stroke="#114F57" stroke-opacity="0.1" stroke-width="0.552535"/>
<line x1="1064.73" y1="1024" x2="1064.73" y2="-5.117e-08" stroke="#114F57" stroke-opacity="0.1" stroke-width="0.552535"/>
<line x1="1054.73" y1="1024" x2="1054.73" y2="-5.117e-08" stroke="#114F57" stroke-opacity="0.1" stroke-width="0.552535"/>
<line x1="1044.73" y1="1024" x2="1044.73" y2="-5.117e-08" stroke="#114F57" stroke-opacity="0.1" stroke-width="0.552535"/>
<line x1="1034.73" y1="1024" x2="1034.73" y2="-5.117e-08" stroke="#114F57" stroke-opacity="0.1" stroke-width="0.552535"/>
<line x1="1024.73" y1="1024" x2="1024.73" y2="-5.117e-08" stroke="#114F57" stroke-opacity="0.1" stroke-width="0.552535"/>
<line x1="1014.73" y1="1024" x2="1014.73" y2="-5.117e-08" stroke="#114F57" stroke-opacity="0.1" stroke-width="0.552535"/>
<line x1="1004.73" y1="1024" x2="1004.73" y2="-5.117e-08" stroke="#114F57" stroke-opacity="0.1" stroke-width="0.552535"/>
<line x1="994.725" y1="1024" x2="994.725" y2="-5.117e-08" stroke="#114F57" stroke-opacity="0.1" stroke-width="0.552535"/>
<line x1="984.725" y1="1024" x2="984.725" y2="-5.117e-08" stroke="#114F57" stroke-opacity="0.1" stroke-width="0.552535"/>
<line x1="974.725" y1="1024" x2="974.725" y2="-5.117e-08" stroke="#114F57" stroke-opacity="0.1" stroke-width="0.552535"/>
<line x1="964.725" y1="1024" x2="964.725" y2="-5.117e-08" stroke="#114F57" stroke-opacity="0.1" stroke-width="0.552535"/>
<line x1="954.725" y1="1024" x2="954.725" y2="-5.117e-08" stroke="#114F57" stroke-opacity="0.1" stroke-width="0.552535"/>
<line x1="944.725" y1="1024" x2="944.725" y2="-5.117e-08" stroke="#114F57" stroke-opacity="0.1" stroke-width="0.552535"/>
<line x1="934.725" y1="1024" x2="934.725" y2="-5.117e-08" stroke="#114F57" stroke-opacity="0.1" stroke-width="0.552535"/>
<line x1="924.725" y1="1024" x2="924.725" y2="-5.117e-08" stroke="#114F57" stroke-opacity="0.1" stroke-width="0.552535"/>
<line x1="914.725" y1="1024" x2="914.725" y2="-5.117e-08" stroke="#114F57" stroke-opacity="0.1" stroke-width="0.552535"/>
<line x1="904.725" y1="1024" x2="904.725" y2="-5.117e-08" stroke="#114F57" stroke-opacity="0.1" stroke-width="0.552535"/>
<line x1="894.725" y1="1024" x2="894.725" y2="-5.117e-08" stroke="#114F57" stroke-opacity="0.1" stroke-width="0.552535"/>
<line x1="884.724" y1="1024" x2="884.725" y2="-5.117e-08" stroke="#114F57" stroke-opacity="0.1" stroke-width="0.552535"/>
<line x1="874.724" y1="1024" x2="874.725" y2="-5.117e-08" stroke="#114F57" stroke-opacity="0.1" stroke-width="0.552535"/>
<line x1="864.724" y1="1024" x2="864.724" y2="-5.117e-08" stroke="#114F57" stroke-opacity="0.1" stroke-width="0.552535"/>
<line x1="854.724" y1="1024" x2="854.724" y2="-5.117e-08" stroke="#114F57" stroke-opacity="0.1" stroke-width="0.552535"/>
<line x1="844.724" y1="1024" x2="844.724" y2="-5.117e-08" stroke="#114F57" stroke-opacity="0.1" stroke-width="0.552535"/>
<line x1="834.724" y1="1024" x2="834.724" y2="-5.117e-08" stroke="#114F57" stroke-opacity="0.1" stroke-width="0.552535"/>
<line x1="824.724" y1="1024" x2="824.724" y2="-5.117e-08" stroke="#114F57" stroke-opacity="0.1" stroke-width="0.552535"/>
<line x1="814.724" y1="1024" x2="814.724" y2="-5.117e-08" stroke="#114F57" stroke-opacity="0.1" stroke-width="0.552535"/>
<line x1="804.724" y1="1024" x2="804.724" y2="-5.117e-08" stroke="#114F57" stroke-opacity="0.1" stroke-width="0.552535"/>
<line x1="794.724" y1="1024" x2="794.724" y2="-5.117e-08" stroke="#114F57" stroke-opacity="0.1" stroke-width="0.552535"/>
<line x1="784.724" y1="1024" x2="784.724" y2="-5.117e-08" stroke="#114F57" stroke-opacity="0.1" stroke-width="0.552535"/>
<line x1="774.724" y1="1024" x2="774.724" y2="-5.117e-08" stroke="#114F57" stroke-opacity="0.1" stroke-width="0.552535"/>
<line x1="764.724" y1="1024" x2="764.724" y2="-5.117e-08" stroke="#114F57" stroke-opacity="0.1" stroke-width="0.552535"/>
<line x1="754.724" y1="1024" x2="754.724" y2="-5.117e-08" stroke="#114F57" stroke-opacity="0.1" stroke-width="0.552535"/>
<line x1="744.724" y1="1024" x2="744.724" y2="-5.117e-08" stroke="#114F57" stroke-opacity="0.1" stroke-width="0.552535"/>
<line x1="734.724" y1="1024" x2="734.724" y2="-5.117e-08" stroke="#114F57" stroke-opacity="0.1" stroke-width="0.552535"/>
<line x1="724.723" y1="1024" x2="724.724" y2="-5.117e-08" stroke="#114F57" stroke-opacity="0.1" stroke-width="0.552535"/>
<line x1="714.723" y1="1024" x2="714.724" y2="-5.117e-08" stroke="#114F57" stroke-opacity="0.1" stroke-width="0.552535"/>
<line x1="704.723" y1="1024" x2="704.723" y2="-5.117e-08" stroke="#114F57" stroke-opacity="0.1" stroke-width="0.552535"/>
<line x1="694.723" y1="1024" x2="694.723" y2="-5.117e-08" stroke="#114F57" stroke-opacity="0.1" stroke-width="0.552535"/>
<line x1="684.723" y1="1024" x2="684.723" y2="-5.117e-08" stroke="#114F57" stroke-opacity="0.1" stroke-width="0.552535"/>
<line x1="674.723" y1="1024" x2="674.723" y2="-5.117e-08" stroke="#114F57" stroke-opacity="0.1" stroke-width="0.552535"/>
<line x1="664.723" y1="1024" x2="664.723" y2="-5.117e-08" stroke="#114F57" stroke-opacity="0.1" stroke-width="0.552535"/>
<line x1="654.723" y1="1024" x2="654.723" y2="-5.117e-08" stroke="#114F57" stroke-opacity="0.1" stroke-width="0.552535"/>
<line x1="644.723" y1="1024" x2="644.723" y2="-5.117e-08" stroke="#114F57" stroke-opacity="0.1" stroke-width="0.552535"/>
<line x1="634.723" y1="1024" x2="634.723" y2="-5.117e-08" stroke="#114F57" stroke-opacity="0.1" stroke-width="0.552535"/>
<line x1="624.723" y1="1024" x2="624.723" y2="-5.117e-08" stroke="#114F57" stroke-opacity="0.1" stroke-width="0.552535"/>
<line x1="614.723" y1="1024" x2="614.723" y2="-5.117e-08" stroke="#114F57" stroke-opacity="0.1" stroke-width="0.552535"/>
<line x1="604.723" y1="1024" x2="604.723" y2="-5.117e-08" stroke="#114F57" stroke-opacity="0.1" stroke-width="0.552535"/>
<line x1="594.723" y1="1024" x2="594.723" y2="-5.117e-08" stroke="#114F57" stroke-opacity="0.1" stroke-width="0.552535"/>
<line x1="584.723" y1="1024" x2="584.723" y2="-5.117e-08" stroke="#114F57" stroke-opacity="0.1" stroke-width="0.552535"/>
<line x1="574.723" y1="1024" x2="574.723" y2="-5.117e-08" stroke="#114F57" stroke-opacity="0.1" stroke-width="0.552535"/>
<line x1="564.723" y1="1024" x2="564.723" y2="-5.117e-08" stroke="#114F57" stroke-opacity="0.1" stroke-width="0.552535"/>
<line x1="554.723" y1="1024" x2="554.723" y2="-5.117e-08" stroke="#114F57" stroke-opacity="0.1" stroke-width="0.552535"/>
<line x1="544.722" y1="1024" x2="544.722" y2="-5.117e-08" stroke="#114F57" stroke-opacity="0.1" stroke-width="0.552535"/>
<line x1="534.722" y1="1024" x2="534.722" y2="-5.117e-08" stroke="#114F57" stroke-opacity="0.1" stroke-width="0.552535"/>
<line x1="524.722" y1="1024" x2="524.722" y2="-5.117e-08" stroke="#114F57" stroke-opacity="0.1" stroke-width="0.552535"/>
<line x1="514.722" y1="1024" x2="514.722" y2="-5.117e-08" stroke="#114F57" stroke-opacity="0.1" stroke-width="0.552535"/>
<line x1="504.722" y1="1024" x2="504.722" y2="-5.117e-08" stroke="#114F57" stroke-opacity="0.1" stroke-width="0.552535"/>
<line x1="494.722" y1="1024" x2="494.722" y2="-5.117e-08" stroke="#114F57" stroke-opacity="0.1" stroke-width="0.552535"/>
<line x1="484.722" y1="1024" x2="484.722" y2="-5.117e-08" stroke="#114F57" stroke-opacity="0.1" stroke-width="0.552535"/>
<line x1="474.722" y1="1024" x2="474.722" y2="-5.117e-08" stroke="#114F57" stroke-opacity="0.1" stroke-width="0.552535"/>
<line x1="464.722" y1="1024" x2="464.722" y2="-5.117e-08" stroke="#114F57" stroke-opacity="0.1" stroke-width="0.552535"/>
<line x1="454.722" y1="1024" x2="454.722" y2="-5.117e-08" stroke="#114F57" stroke-opacity="0.1" stroke-width="0.552535"/>
<line x1="444.722" y1="1024" x2="444.722" y2="-5.117e-08" stroke="#114F57" stroke-opacity="0.1" stroke-width="0.552535"/>
<line x1="434.722" y1="1024" x2="434.722" y2="-5.117e-08" stroke="#114F57" stroke-opacity="0.1" stroke-width="0.552535"/>
<line x1="424.722" y1="1024" x2="424.722" y2="-5.117e-08" stroke="#114F57" stroke-opacity="0.1" stroke-width="0.552535"/>
<line x1="414.722" y1="1024" x2="414.722" y2="-5.117e-08" stroke="#114F57" stroke-opacity="0.1" stroke-width="0.552535"/>
<line x1="404.722" y1="1024" x2="404.722" y2="-5.117e-08" stroke="#114F57" stroke-opacity="0.1" stroke-width="0.552535"/>
<line x1="394.722" y1="1024" x2="394.722" y2="-5.117e-08" stroke="#114F57" stroke-opacity="0.1" stroke-width="0.552535"/>
<line x1="384.722" y1="1024" x2="384.722" y2="-5.117e-08" stroke="#114F57" stroke-opacity="0.1" stroke-width="0.552535"/>
<line x1="374.722" y1="1024" x2="374.722" y2="-5.117e-08" stroke="#114F57" stroke-opacity="0.1" stroke-width="0.552535"/>
<line x1="364.722" y1="1024" x2="364.722" y2="-5.117e-08" stroke="#114F57" stroke-opacity="0.1" stroke-width="0.552535"/>
<line x1="354.722" y1="1024" x2="354.722" y2="-5.117e-08" stroke="#114F57" stroke-opacity="0.1" stroke-width="0.552535"/>
<line x1="344.722" y1="1024" x2="344.722" y2="-5.117e-08" stroke="#114F57" stroke-opacity="0.1" stroke-width="0.552535"/>
<line x1="334.722" y1="1024" x2="334.722" y2="-5.117e-08" stroke="#114F57" stroke-opacity="0.1" stroke-width="0.552535"/>
<line x1="324.722" y1="1024" x2="324.722" y2="-5.117e-08" stroke="#114F57" stroke-opacity="0.1" stroke-width="0.552535"/>
<line x1="314.722" y1="1024" x2="314.722" y2="-5.117e-08" stroke="#114F57" stroke-opacity="0.1" stroke-width="0.552535"/>
<line x1="304.722" y1="1024" x2="304.722" y2="-5.117e-08" stroke="#114F57" stroke-opacity="0.1" stroke-width="0.552535"/>
<line x1="294.722" y1="1024" x2="294.722" y2="-5.117e-08" stroke="#114F57" stroke-opacity="0.1" stroke-width="0.552535"/>
<line x1="284.722" y1="1024" x2="284.722" y2="-5.117e-08" stroke="#114F57" stroke-opacity="0.1" stroke-width="0.552535"/>
<line x1="274.722" y1="1024" x2="274.722" y2="-5.117e-08" stroke="#114F57" stroke-opacity="0.1" stroke-width="0.552535"/>
<line x1="264.722" y1="1024" x2="264.722" y2="-5.117e-08" stroke="#114F57" stroke-opacity="0.1" stroke-width="0.552535"/>
<line x1="254.722" y1="1024" x2="254.722" y2="-5.117e-08" stroke="#114F57" stroke-opacity="0.1" stroke-width="0.552535"/>
<line x1="244.722" y1="1024" x2="244.722" y2="-5.117e-08" stroke="#114F57" stroke-opacity="0.1" stroke-width="0.552535"/>
<line x1="234.722" y1="1024" x2="234.722" y2="-5.117e-08" stroke="#114F57" stroke-opacity="0.1" stroke-width="0.552535"/>
<line x1="224.722" y1="1024" x2="224.722" y2="-5.117e-08" stroke="#114F57" stroke-opacity="0.1" stroke-width="0.552535"/>
<line x1="214.722" y1="1024" x2="214.722" y2="-5.117e-08" stroke="#114F57" stroke-opacity="0.1" stroke-width="0.552535"/>
<line x1="204.722" y1="1024" x2="204.722" y2="-5.117e-08" stroke="#114F57" stroke-opacity="0.1" stroke-width="0.552535"/>
<line x1="194.722" y1="1024" x2="194.722" y2="-5.117e-08" stroke="#114F57" stroke-opacity="0.1" stroke-width="0.552535"/>
<line x1="184.722" y1="1024" x2="184.722" y2="-5.117e-08" stroke="#114F57" stroke-opacity="0.1" stroke-width="0.552535"/>
<line x1="174.722" y1="1024" x2="174.722" y2="-5.117e-08" stroke="#114F57" stroke-opacity="0.1" stroke-width="0.552535"/>
<line x1="164.722" y1="1024" x2="164.722" y2="-5.117e-08" stroke="#114F57" stroke-opacity="0.1" stroke-width="0.552535"/>
<line x1="154.722" y1="1024" x2="154.722" y2="-5.117e-08" stroke="#114F57" stroke-opacity="0.1" stroke-width="0.552535"/>
<line x1="144.722" y1="1024" x2="144.722" y2="-5.117e-08" stroke="#114F57" stroke-opacity="0.1" stroke-width="0.552535"/>
<line x1="134.722" y1="1024" x2="134.722" y2="-5.117e-08" stroke="#114F57" stroke-opacity="0.1" stroke-width="0.552535"/>
<line x1="124.722" y1="1024" x2="124.722" y2="-5.117e-08" stroke="#114F57" stroke-opacity="0.1" stroke-width="0.552535"/>
<line x1="114.722" y1="1024" x2="114.722" y2="-5.117e-08" stroke="#114F57" stroke-opacity="0.1" stroke-width="0.552535"/>
<line x1="104.722" y1="1024" x2="104.722" y2="-5.117e-08" stroke="#114F57" stroke-opacity="0.1" stroke-width="0.552535"/>
<line x1="94.7218" y1="1024" x2="94.7219" y2="-5.117e-08" stroke="#114F57" stroke-opacity="0.1" stroke-width="0.552535"/>
<line x1="84.7218" y1="1024" x2="84.7219" y2="-5.117e-08" stroke="#114F57" stroke-opacity="0.1" stroke-width="0.552535"/>
<line x1="74.7218" y1="1024" x2="74.7219" y2="-5.117e-08" stroke="#114F57" stroke-opacity="0.1" stroke-width="0.552535"/>
<line x1="64.7218" y1="1024" x2="64.7219" y2="-5.117e-08" stroke="#114F57" stroke-opacity="0.1" stroke-width="0.552535"/>
<line x1="54.7218" y1="1024" x2="54.7219" y2="-5.117e-08" stroke="#114F57" stroke-opacity="0.1" stroke-width="0.552535"/>
<line x1="44.7218" y1="1024" x2="44.7219" y2="-5.117e-08" stroke="#114F57" stroke-opacity="0.1" stroke-width="0.552535"/>
<line x1="34.7218" y1="1024" x2="34.7219" y2="-5.117e-08" stroke="#114F57" stroke-opacity="0.1" stroke-width="0.552535"/>
<line x1="24.7218" y1="1024" x2="24.7219" y2="-5.117e-08" stroke="#114F57" stroke-opacity="0.1" stroke-width="0.552535"/>
<line x1="14.7218" y1="1024" x2="14.7219" y2="-5.117e-08" stroke="#114F57" stroke-opacity="0.1" stroke-width="0.552535"/>
<line x1="4.72178" y1="1024" x2="4.72188" y2="-5.117e-08" stroke="#114F57" stroke-opacity="0.1" stroke-width="0.552535"/>
</svg>
