<svg width="14" height="13" viewBox="0 0 14 13" fill="none" xmlns="http://www.w3.org/2000/svg">
<path d="M8.375 12.3963H8.32438C8.20356 12.3853 8.08954 12.3355 7.99932 12.2544C7.9091 12.1734 7.84751 12.0653 7.82375 11.9463L5.945 2.54692L4.67938 5.70817C4.55468 6.02127 4.3391 6.28986 4.06039 6.47933C3.78169 6.66881 3.45264 6.7705 3.11562 6.7713H0.5V5.6463H3.11562C3.22732 5.64529 3.33619 5.61105 3.42835 5.54793C3.52051 5.48482 3.5918 5.3957 3.63312 5.29192L5.60187 0.375674C5.64336 0.257871 5.72286 0.157223 5.82786 0.0895962C5.93287 0.0219698 6.05739 -0.00878843 6.1818 0.00217014C6.30621 0.0131287 6.42344 0.0651807 6.515 0.150121C6.60656 0.235061 6.66725 0.348058 6.6875 0.471299L8.56625 9.87067L9.83187 6.70942C9.95585 6.3981 10.1697 6.13073 10.4462 5.94139C10.7227 5.75206 11.0493 5.64933 11.3844 5.6463H14V6.7713H11.3844C11.2727 6.77231 11.1638 6.80655 11.0716 6.86966C10.9795 6.93278 10.9082 7.0219 10.8669 7.12567L8.89812 12.0419C8.85644 12.1466 8.78429 12.2363 8.69102 12.2995C8.59775 12.3627 8.48766 12.3964 8.375 12.3963Z" fill="#1EB8CD"/>
</svg>
