<svg width="16" height="16" viewBox="0 0 16 16" fill="none" xmlns="http://www.w3.org/2000/svg">
<path d="M8 0.5C3.58 0.5 0 4.02 0 8.36133C0 11.8353 2.292 14.7813 5.47 15.82C5.87 15.894 6.01667 15.6507 6.01667 15.442C6.01667 15.2553 6.01 14.7607 6.00667 14.1053C3.78133 14.5793 3.312 13.0507 3.312 13.0507C2.948 12.1433 2.422 11.9007 2.422 11.9007C1.69733 11.4133 2.478 11.4233 2.478 11.4233C3.28133 11.478 3.70333 12.2333 3.70333 12.2333C4.41667 13.4353 5.576 13.088 6.03333 12.8873C6.10533 12.3787 6.31133 12.0327 6.54 11.836C4.76333 11.6393 2.896 10.9633 2.896 7.95133C2.896 7.09333 3.206 6.392 3.71933 5.842C3.62933 5.64333 3.35933 4.844 3.78933 3.76133C3.78933 3.76133 4.45933 3.55067 5.98933 4.56733C6.62933 4.39267 7.30933 4.306 7.98933 4.302C8.66933 4.306 9.34933 4.39267 9.98933 4.56733C11.5093 3.55067 12.1793 3.76133 12.1793 3.76133C12.6093 4.844 12.3393 5.64333 12.2593 5.842C12.7693 6.392 13.0793 7.09333 13.0793 7.95133C13.0793 10.9713 11.2093 11.636 9.42933 11.8293C9.70933 12.0653 9.96933 12.5473 9.96933 13.284C9.96933 14.336 9.95933 15.1813 9.95933 15.4367C9.95933 15.6427 10.0993 15.8887 10.5093 15.81C13.71 14.778 16 11.83 16 8.36133C16 4.02 12.418 0.5 8 0.5Z" fill="#1EB8CD"/>
</svg>
