<svg width="18" height="18" viewBox="0 0 18 18" fill="none" xmlns="http://www.w3.org/2000/svg">
<path d="M4.77705 7.13251C1.71705 7.35001 1.72455 11.7825 4.77705 12H12.0221C12.8996 12.0075 13.7471 11.6775 14.3996 11.085C16.5446 9.21002 15.3971 5.45999 12.5696 5.09999C11.5571 -1.00501 2.71456 1.31251 4.80706 7.13251" stroke="#1EB8CD" stroke-miterlimit="10" stroke-linecap="round" stroke-linejoin="round"/>
<path d="M9 12V14.25" stroke="#1EB8CD" stroke-miterlimit="10" stroke-linecap="round" stroke-linejoin="round"/>
<path d="M9 17.25C9.82843 17.25 10.5 16.5784 10.5 15.75C10.5 14.9216 9.82843 14.25 9 14.25C8.17157 14.25 7.5 14.9216 7.5 15.75C7.5 16.5784 8.17157 17.25 9 17.25Z" stroke="#1EB8CD" stroke-miterlimit="10" stroke-linecap="round" stroke-linejoin="round"/>
<path d="M13.5 15.75H10.5" stroke="#1EB8CD" stroke-miterlimit="10" stroke-linecap="round" stroke-linejoin="round"/>
<path d="M7.5 15.75H4.5" stroke="#1EB8CD" stroke-miterlimit="10" stroke-linecap="round" stroke-linejoin="round"/>
</svg>