<svg width="99" height="41" viewBox="0 0 99 41" fill="none" xmlns="http://www.w3.org/2000/svg">
<path fill-rule="evenodd" clip-rule="evenodd" d="M5.90624 19.2747C5.89055 22.0214 7.91815 23.6587 11.1539 22.9145V15.6366C7.87805 14.6466 5.91845 16.6509 5.90624 19.2747ZM11.2533 5.11529H15.7095V26.0611C11.4381 26.7534 7.34457 27.1947 4.41736 25.5695C0.648087 23.4753 0.344731 16.8291 3.32772 13.8678C4.84101 12.3655 7.88503 11.3097 11.1539 11.9986V5.41125C11.1452 5.27106 11.1382 5.13086 11.2533 5.11529ZM22.943 9.73644H18.485V5.11529H22.943V9.73644ZM76.4311 23.1101C81.29 24.9845 81.8287 14.4753 76.9262 15.4411C73.8822 16.0399 73.9799 22.1651 76.4311 23.1101ZM76.6299 11.8013C80.3399 11.4084 83.1398 13.0336 84.2573 15.5397C86.1629 19.813 84.1527 24.7162 81.086 26.158C79.4995 26.9057 77.8346 26.9766 76.3317 26.8468C71.6873 26.4453 68.7583 21.7462 70.3884 16.5228C70.6447 15.7041 70.9306 15.2039 71.0823 14.9478C72.0935 13.2447 73.7968 12.1024 76.6299 11.8013ZM29.0833 21.4382C27.8507 23.4961 30.9487 23.9893 32.9467 23.4061V20.3582C31.4125 20.5693 29.6638 20.4707 29.0833 21.4382ZM36.9095 26.2566C33.2274 26.4678 27.631 27.7122 25.6174 25.2736C24.4336 23.8405 24.5608 21.1076 25.6174 19.768C26.9825 18.0355 29.962 17.6564 32.6503 17.4072C32.8944 16.8101 32.7288 15.8391 32.4516 15.4411C29.9933 14.818 27.5491 15.782 25.8144 16.5228V13.0803C28.4347 11.8861 34.5001 10.6278 36.315 13.3745C37.2686 14.818 36.9078 17.3345 36.9078 19.5707L36.9095 26.2566ZM52.5602 26.4557H48.1023V20.7511C48.1023 18.8732 48.4074 16.4916 47.4084 15.7353C46.6256 15.1434 44.7688 15.4411 43.6443 15.7353V26.4539H39.1864V12.7861C43.7437 11.6091 51.9692 10.3509 52.5584 16.0312C52.8513 18.8316 52.344 23.0322 52.5584 26.4539L52.5602 26.4557ZM59.1974 21.7341C59.9471 22.9388 61.9764 23.3905 63.6536 22.6186C63.561 20.2601 63.5279 17.8998 63.5542 15.5397C59.7012 14.5289 57.4086 18.8593 59.1974 21.7341ZM70.3902 12.3914C69.9927 13.5718 69.4121 14.5687 68.903 15.6366C68.4445 15.7405 68.0452 15.4566 67.8134 15.6366C67.7123 20.4309 68.842 26.9282 66.9225 30.388C65.7666 32.4701 63.6379 33.8062 60.3847 34.0261C58.3615 34.1849 56.3286 33.8824 54.4413 33.1416V29.0103C56.4742 30.1889 61.612 31.1495 63.0591 28.7161C63.4845 27.9995 63.4583 27.2587 63.6518 26.1597C62.7226 26.2082 61.8178 26.6357 60.681 26.6512C56.0104 26.7118 53.1198 23.0201 54.2426 17.8987C54.6784 15.9187 55.8465 14.323 57.4139 13.3763C60.6654 11.4066 65.669 11.5572 70.3902 12.3914Z" fill="white"/>
<path fill-rule="evenodd" clip-rule="evenodd" d="M22.9422 12.0782C22.937 15.3355 22.937 17.6772 22.937 21.6355C22.7487 25.5262 22.7923 28.6243 21.3575 30.4849C21.0733 30.8518 20.4735 31.3884 19.9697 31.7639C19.5478 32.0789 18.7441 32.7193 18.2873 32.747C17.8253 32.7747 16.6432 32.1118 16.108 31.8626C15.4037 31.5337 14.7534 31.0976 14.0264 30.8795C15.7227 29.8359 17.3319 29.0536 17.9892 26.9455C18.561 25.1109 18.4843 22.4541 18.4843 19.8666C18.4843 17.3086 18.4965 14.3351 18.4965 12.0782H22.9422Z" fill="white"/>
</svg>