<svg width="38" height="35" viewBox="0 0 38 35" fill="none" xmlns="http://www.w3.org/2000/svg">
<path d="M16.8992 8.78489C17.3367 8.00989 15.0954 7.74114 16.6054 8.51114C16.7454 8.55739 16.7142 8.83864 16.8992 8.78489ZM4.67793 2.20114C3.72543 0.957391 6.46793 2.40989 5.50168 1.10739C4.68668 0.458641 3.90418 1.83864 4.67793 2.20114ZM6.67293 3.76364C8.02543 3.58364 6.32918 3.18114 6.40168 3.74739L6.67293 3.76364ZM5.60418 3.50739C5.09543 3.70739 5.89418 3.11364 5.60418 3.50739V3.50739ZM7.76043 5.88114C8.60043 5.90114 7.39918 4.75364 8.39918 5.27239C8.23543 4.73614 7.23418 4.63614 6.74293 4.42239C6.46793 4.91239 7.30543 5.88739 7.75793 5.88114H7.76043ZM5.14543 5.77364C5.86418 5.23114 7.62543 6.09489 6.49543 5.23489C6.38668 5.13864 4.01793 5.88739 5.14543 5.77364ZM4.40793 7.18364C5.66668 6.75614 7.38668 6.27614 7.98043 7.39489C7.37543 6.66739 7.73668 5.95114 8.30793 7.01489C9.11418 8.09114 9.51793 6.52614 8.99168 6.16364C9.59043 6.90739 10.2704 7.25739 9.39293 6.20989C10.3454 5.06364 7.48293 6.36114 6.83168 6.34739C6.51918 6.48739 3.59543 7.09239 4.40793 7.18364ZM6.75043 11.1011C6.32918 10.9999 7.05793 10.7211 6.75043 11.1011V11.1011ZM6.01668 13.0649C5.79793 13.3049 5.94168 12.6124 6.01668 13.0649V13.0649ZM5.39543 12.7499C6.09793 12.7036 6.49793 11.9736 5.25918 12.0161C3.33793 11.8174 6.95293 12.6724 5.01293 12.4286C4.75168 12.5999 5.38168 12.7986 5.39543 12.7524V12.7499ZM35.3954 31.8061C36.2654 31.8061 38.0317 31.5361 36.1379 31.5361C35.8417 31.5836 34.4067 31.5736 35.3954 31.8061ZM31.2254 29.3574C30.8042 29.4149 31.3192 28.7199 31.2254 29.3574V29.3574ZM34.4942 31.5911C34.0192 31.8411 34.5129 31.0361 34.4942 31.5911V31.5911ZM2.31293 11.4561C1.57668 11.2749 2.93668 10.9799 2.31293 11.4561V11.4561ZM4.68668 13.1436C3.85793 12.9786 5.06918 12.7374 4.68668 13.1436V13.1436ZM3.88293 12.9186C2.72543 12.3411 4.97168 12.2511 3.88293 12.9186V12.9186ZM11.9354 7.84989C12.2992 6.89364 13.3504 7.46739 12.1042 7.65739C12.1304 7.75864 12.0667 8.15114 11.9354 7.84989ZM10.9354 7.85614C10.8492 5.95989 12.6829 8.53114 10.9354 7.85614V7.85614ZM7.42043 8.39739C7.99793 7.70364 10.6929 7.95489 8.72043 8.32989C8.19293 7.93114 7.78668 8.56364 7.42043 8.39739ZM7.17668 8.55989C7.27668 8.91864 7.52293 8.15364 7.17668 8.55989V8.55989ZM6.22793 8.94239C6.27793 8.29989 7.81793 9.28239 6.48293 9.17364L6.22793 8.94239ZM5.53293 8.92989C5.82293 9.15739 6.07918 8.52364 5.53293 8.92989V8.92989ZM5.45918 9.60864C5.83918 8.21239 7.49043 10.7561 6.08043 9.79239C5.92918 9.67364 5.73668 9.60239 5.52668 9.60239C5.50293 9.60239 5.47918 9.60364 5.45543 9.60489H5.45793L5.45918 9.60864ZM1.56293 11.5924C1.41793 10.7561 1.43793 9.28989 2.83168 9.78614C0.97168 10.1549 4.11918 12.0974 3.72168 10.5636C4.50293 10.6011 5.25293 10.1011 4.84043 10.8599C6.38168 10.6886 7.44918 9.35364 8.93918 9.53989C10.2917 9.42739 11.5417 9.16614 12.7304 8.77114L12.6167 8.80364C13.6442 8.72864 14.6317 7.62239 14.0692 6.96864C13.7967 6.95239 13.4779 6.94239 13.1567 6.94239C11.9154 6.94239 10.7067 7.08489 9.54668 7.35364L9.65418 7.33239C7.93918 7.68864 6.38043 8.36614 4.64793 8.65864C2.96043 8.88489 4.98668 9.28364 4.50418 9.37114C3.62293 9.67739 5.55418 9.88364 4.39043 10.2049C3.67168 10.0674 2.92168 9.82114 3.23043 9.06489C1.61418 9.27239 0.19168 9.94489 1.47043 11.5886H1.56418L1.56293 11.5924ZM4.27543 13.4074C3.63543 13.5249 4.36168 12.8136 4.27543 13.4074V13.4074ZM32.6767 31.7649C32.1554 31.8424 32.8829 31.1524 32.6767 31.7649V31.7649ZM29.5929 30.1661C28.9367 30.0199 30.1079 29.6924 29.5929 30.1661V30.1661ZM4.07793 14.4074C4.88668 14.0899 2.60918 13.7511 3.91543 14.3449L4.07793 14.4074ZM2.17293 13.2686C1.87668 13.3311 2.11793 12.7686 2.17293 13.2686V13.2686ZM1.82918 13.5286C1.60418 13.6874 1.79793 13.1074 1.82918 13.5286V13.5286ZM4.15043 15.0349C2.83793 14.8974 4.04168 14.1211 4.15043 15.0349V15.0349ZM8.64918 18.3586C8.19668 18.2286 8.83918 18.1836 8.64918 18.3586V18.3586ZM4.57918 15.7499C4.39168 15.5986 4.43293 15.9399 4.57918 15.7499V15.7499ZM3.93293 15.4336C2.89668 15.0836 3.94668 15.0436 3.93293 15.4336V15.4336ZM2.80168 15.1486C1.98168 14.9649 2.58668 13.9386 2.80168 15.1486V15.1486ZM7.54543 18.4424C7.05043 18.4186 7.55918 17.8061 7.54543 18.4424V18.4424ZM28.9817 31.7949C29.7817 31.6324 31.6029 32.2011 31.8967 31.5824C30.9279 31.5586 28.5379 30.8986 28.4254 31.7386L28.6379 31.7749L28.9817 31.7949ZM6.97293 18.2986C6.78293 18.3761 6.96168 18.0911 6.97293 18.2986V18.2986ZM5.16668 17.4236C4.59293 17.2836 5.79043 17.2124 5.16668 17.4236V17.4236ZM19.5842 27.1561C18.9667 27.3124 19.5729 26.5299 19.5842 27.1561V27.1561ZM5.55168 18.3124C4.51418 18.0474 6.52043 17.9374 5.55168 18.3124V18.3124ZM24.3117 30.3711C23.8904 30.3399 24.6492 30.1211 24.3117 30.3711V30.3711ZM20.7942 28.1536C20.5492 28.1999 20.7317 27.9111 20.7942 28.1536V28.1536ZM20.3667 27.8424C19.6979 27.8324 20.1979 27.4086 20.3667 27.8424V27.8424ZM11.4929 22.2449C10.3604 21.9886 11.4929 21.6124 11.4929 22.2449V22.2449ZM10.4679 22.0074C10.0529 21.6586 10.4479 21.9574 10.4679 22.0074V22.0074ZM3.71418 17.8436C3.85793 17.2449 2.38168 14.5524 3.01793 16.4936C3.24543 16.8999 3.22043 17.6711 3.71418 17.8436ZM7.39418 20.7486C8.20168 20.9299 10.6217 22.7386 9.19418 20.8736C8.46293 20.6586 8.90168 18.8699 8.15543 19.1861C8.65543 20.0224 8.56793 20.3774 7.51543 19.8511C6.19543 19.2061 6.77543 20.1699 7.03168 20.4349C6.68168 20.5161 7.49918 20.7411 7.39543 20.7474L7.39418 20.7486ZM27.6142 33.7649C26.8817 33.6349 28.2167 33.3624 27.6142 33.7649V33.7649ZM25.4579 32.3311C24.5092 32.6636 26.3542 31.5786 25.4579 32.3311V32.3311ZM25.8792 32.5349C26.9804 31.7386 25.2104 32.3824 25.6479 32.6849L25.8792 32.5349ZM13.5492 25.2174C13.1992 25.2911 13.3229 24.7536 13.5492 25.2174V25.2174ZM12.8304 24.8011C12.3754 24.8324 12.7992 24.4261 12.8304 24.8011V24.8011ZM24.4992 32.1586C25.3604 31.6036 24.3029 31.6899 24.3429 32.2086L24.4992 32.1586ZM6.84043 21.0224C6.18418 20.9736 7.09543 20.6449 6.84043 21.0224V21.0224ZM24.7817 32.5224C24.2192 32.3624 25.6717 31.7599 24.7817 32.5224V32.5224ZM23.4292 31.9911C22.7017 31.4911 25.2017 30.8449 23.4292 31.9911V31.9911ZM4.63793 20.2224C3.81668 19.0511 4.12668 18.5224 3.33418 17.5674C3.18418 16.8336 1.97543 15.1724 2.70918 16.9336C3.38043 17.9624 3.58043 19.5561 4.63793 20.2236V20.2224ZM23.7304 32.3161C22.7967 32.3774 24.6942 31.2949 23.7304 32.3161V32.3161ZM23.7292 32.6436C23.3542 32.7461 23.7342 32.4099 23.7292 32.6436V32.6436ZM21.9167 31.4011C21.0729 31.7261 22.7879 30.6699 21.9167 31.4011V31.4011ZM13.9554 26.4811C14.5204 26.9811 16.5517 26.8499 14.6429 26.5436C14.3592 26.1224 12.8454 26.2249 13.9554 26.4811ZM8.15918 22.9874C6.80918 22.4186 7.78168 22.3599 8.15918 22.9874V22.9874ZM7.14168 22.3186C6.04793 21.7099 6.98543 21.7049 7.14168 22.3186V22.3186ZM22.2804 31.8274C22.7879 31.3349 22.3004 32.6136 23.1242 31.7074C23.1317 31.0586 23.0979 30.6761 22.1779 31.4636C21.9254 31.6036 21.8129 32.2024 22.2804 31.8274ZM21.3267 31.4261C21.0254 31.8011 21.3579 30.9886 21.3267 31.4261V31.4261ZM12.0479 25.8049C10.9679 24.9361 14.2504 26.5136 12.0479 25.8049V25.8049ZM10.2354 24.7636C10.7667 25.1586 12.2354 25.8861 10.9917 24.9136C11.4117 24.4261 10.1892 24.1674 10.5954 23.8424C9.56418 23.2111 9.78293 23.2674 10.5054 23.2861C9.26543 22.7336 10.6829 22.7736 10.6142 22.4899C10.1379 22.3961 8.24043 21.6461 9.35793 22.5524C8.22418 21.9749 9.08793 22.7674 8.74543 22.6836C7.58543 22.3686 9.77668 23.5661 8.56168 23.2699C9.22543 23.7961 10.3517 24.6199 8.84293 23.8274C8.64293 24.1136 9.92043 24.5461 10.2367 24.7649L10.2354 24.7636ZM13.6579 27.0349C14.6192 27.2849 14.6142 26.8861 13.7442 26.7699C13.2754 26.3324 11.7979 25.8711 13.1192 26.7149C13.2079 26.9361 13.4867 26.9324 13.6567 27.0361L13.6579 27.0349ZM11.9242 26.1599C11.7242 25.9861 11.9492 26.2686 11.9242 26.1599V26.1599ZM12.7667 9.58239C12.7979 9.79989 12.9129 9.40239 12.7667 9.58239V9.58239ZM12.2629 12.5861C11.9254 11.9924 12.6879 9.97239 12.7717 11.2274C12.4167 12.2036 12.6704 12.7499 12.9167 11.4399C13.3742 10.4086 12.8179 13.4749 12.2604 12.5874L12.2629 12.5861ZM11.7729 13.3824C11.6904 12.8824 12.0542 14.0136 11.7729 13.3824V13.3824ZM12.0742 14.1786C11.5829 12.9661 12.5304 14.8186 12.0742 14.1786V14.1786ZM12.2792 14.6324C12.2754 14.3711 12.3467 15.0099 12.2792 14.6324V14.6324ZM8.74418 12.6649C9.06543 11.9874 9.33793 13.4199 8.74418 12.6649V12.6649ZM7.49168 11.9186C7.59793 12.1874 7.69293 11.8324 7.49168 11.9186V11.9186ZM12.8454 16.0986C13.0067 16.9624 13.0279 14.6236 12.8454 16.0986V16.0986ZM8.04293 13.2811C8.30668 12.8936 7.34043 11.5311 8.18168 12.7924C8.54418 13.0811 9.23168 13.2761 8.62418 13.3974C9.57668 14.2399 8.39043 13.6249 8.04293 13.2824V13.2811ZM13.1204 16.5036C13.1892 15.2074 13.5079 15.7299 13.1229 16.6874L13.1204 16.5036ZM7.56043 13.7311C8.20918 13.5936 10.2442 14.8699 8.37293 14.0961C8.16668 13.8649 7.72293 13.9724 7.56043 13.7311ZM13.4829 17.8261C13.4979 18.3024 13.6854 17.1049 13.4829 17.8261V17.8261ZM10.8554 16.1411C10.7529 14.8761 11.0854 16.3499 10.8554 16.1411V16.1411ZM7.39418 14.3049C6.30543 12.8011 10.5604 15.8249 8.09293 14.6861C7.83543 14.6186 7.52418 14.5924 7.39418 14.3049ZM13.4017 18.3774C13.4129 18.7799 13.4854 18.0336 13.4017 18.3774V18.3774ZM13.7142 18.6874C13.7892 17.8861 13.8692 19.2336 13.7142 18.6874V18.6874ZM11.9179 17.6249C11.1842 17.1849 11.7254 14.5261 11.9754 16.3436C12.6892 16.1124 11.9367 17.2811 12.4679 17.2711C12.3854 18.0099 12.1467 18.2761 11.9217 17.6236L11.9179 17.6249ZM7.06043 14.8011C5.36418 13.2924 9.19293 15.5911 7.33668 15.0824L7.06043 14.8011ZM8.14918 15.8424C7.63668 14.8786 8.77418 16.2449 8.14918 15.8424V15.8424ZM7.60168 15.6661C7.78168 15.9974 7.94043 15.3299 7.60168 15.6661V15.6661ZM6.71168 15.6899C6.12793 15.1124 5.70543 14.5761 6.73793 15.3311C7.13668 15.3461 5.85418 14.1161 6.83168 14.9411C7.86293 15.1286 7.34293 16.6311 6.71168 15.6911V15.6899ZM8.40543 17.0011C8.74293 16.2899 8.97668 17.9911 8.40543 17.0011V17.0011ZM7.70168 16.7599C7.76418 15.8174 8.06043 17.4049 7.70168 16.7599V16.7599ZM9.26918 17.8386C8.94168 17.2786 8.74793 16.6049 8.74793 15.8861C8.74793 15.8849 8.74793 15.8836 8.74793 15.8824C8.86668 16.4724 10.0042 18.4236 9.30543 16.6911C8.53418 15.2386 10.2267 17.1624 10.4017 17.5249C10.4792 17.8836 9.92543 17.4261 10.3017 18.2711C9.61418 17.3074 9.89543 18.8036 9.26918 17.8386ZM14.3392 21.2211C13.7892 19.9874 14.7292 20.5461 14.4604 21.4236L14.3392 21.2211ZM11.3992 20.2774C11.1567 19.8436 11.9042 20.6836 11.3992 20.2774V20.2774ZM14.8229 22.6599C15.0329 21.8724 15.0704 23.3224 14.8229 22.6599V22.6599ZM9.97543 20.0324C10.1442 20.6161 10.3179 19.9386 9.97543 20.0324V20.0324ZM16.0667 24.2374C15.4854 23.1124 16.8004 24.5561 16.0667 24.2374V24.2374ZM16.5704 24.9136C16.5554 24.1824 16.7379 25.4761 16.5704 24.9136V24.9136ZM22.3592 29.3124C22.3692 29.5311 22.6479 29.2949 22.3592 29.3124V29.3124ZM17.3004 26.0986C16.8379 25.6149 16.7179 24.7086 17.2179 25.4974C17.4742 25.5999 18.0379 26.9761 17.3004 26.0986ZM18.8542 30.4849C20.0617 29.7636 19.6629 32.1749 20.9017 30.6874C22.1229 29.7974 19.8479 31.7911 21.3542 30.8486C22.4417 30.1186 24.0504 31.1924 25.0654 31.5436C25.7967 31.5074 26.5067 32.1761 27.2567 31.7699C28.6979 31.3799 24.4354 31.1924 25.5542 30.5049C25.3817 30.5436 25.1829 30.5661 24.9792 30.5661C23.9729 30.5661 23.0929 30.0224 22.6167 29.2136L22.6092 29.2011C20.9854 28.9324 19.6067 28.0511 18.6892 26.8086L18.6779 26.7924C18.3779 26.2999 19.1154 26.8611 18.4192 26.0586C17.6617 25.2961 17.0154 24.4199 16.5104 23.4599L16.4817 23.4011C15.7679 23.0199 15.6854 21.8974 15.6117 23.3636C15.6179 22.4374 14.7479 21.8136 14.5367 22.0736C14.5342 21.1811 15.4667 21.6286 14.8117 20.9686C14.6717 20.0436 14.2092 19.0786 14.0692 18.0361C13.8542 17.5336 14.0379 16.4574 13.3304 17.5961C13.0729 18.7986 13.2442 16.1174 13.6454 17.0024C14.1717 16.0961 13.4579 16.2061 13.4267 16.3311C13.7704 15.5686 13.6454 14.4874 13.3379 14.8999C13.5204 14.0924 13.6267 11.9286 13.0642 12.3136C13.4042 11.4699 13.7104 8.45114 12.2304 9.60239C11.4554 9.63364 10.7279 9.80114 10.0604 10.0799L10.1017 10.0649C11.6417 10.9136 9.94543 10.3711 9.32043 10.2361C9.23918 11.0199 8.61793 10.6811 7.84293 10.6886C9.08168 10.8411 7.24043 11.9536 6.52918 11.5224C5.60793 11.9624 7.32543 13.0636 6.54793 13.4049C6.64168 13.9174 5.13418 13.2174 5.25168 14.4049C4.35668 14.0286 5.13043 15.8111 5.57793 15.2074C7.10043 15.6199 6.64918 16.5599 6.68668 17.4524C6.44043 17.9724 5.46168 16.2299 6.46793 16.3099C5.67543 15.0186 5.59168 15.8411 4.93043 16.4424C4.77418 16.4861 6.61543 17.2974 5.46168 17.6961C6.47668 17.8524 6.50543 18.7424 6.71168 19.3049C7.32043 19.9411 7.19543 18.6024 7.92793 19.3674C7.46543 18.6861 5.48043 17.4486 7.07793 17.8461C7.07043 17.1586 6.78918 16.6074 7.27918 16.6211C7.76293 15.7436 6.77168 18.7874 7.86543 17.6711C8.16668 17.5386 8.24043 16.7911 8.78668 17.7411C9.57543 18.5186 9.07043 19.0811 7.95668 18.3711C8.15543 19.0474 9.44668 19.2886 9.20418 20.3474C9.46168 21.2774 9.82168 20.9349 10.1354 20.8811C10.3817 21.7836 10.5217 21.1199 10.5342 20.6886C11.6592 20.9311 11.3967 21.5949 11.7492 22.0636C12.5254 22.4136 10.6367 19.6861 11.9704 21.2424C13.3729 22.5074 12.4967 23.0386 11.2367 22.8361C12.0329 22.7724 12.2917 23.9136 13.2879 23.8736C14.1967 24.3061 14.8104 25.9674 13.2454 25.2749C12.7017 24.7861 10.7779 24.1811 12.3504 25.1124C13.9529 25.7686 15.2692 26.4111 16.5379 27.1261L16.3504 27.0299C17.3504 27.7449 17.7842 28.5636 18.1629 28.7261C17.3229 29.1274 15.6279 28.4049 16.8867 28.1824C16.1004 28.0399 15.2179 27.6436 15.9692 28.6199C16.6092 29.1561 18.2342 29.0974 18.5267 29.1586C18.2779 29.7024 17.8554 29.7461 18.5367 29.7886C17.7779 30.1949 18.7804 30.2574 18.8504 30.4886L18.8542 30.4849ZM14.3617 27.7236C15.6529 27.8886 12.8229 26.8436 14.0792 27.6299L14.3617 27.7236ZM17.8067 30.0624C16.7129 29.8436 18.9279 29.6174 17.8067 30.0624V30.0624ZM11.1829 25.9424C10.0267 25.4561 11.9017 25.8649 11.1829 25.9424V25.9424ZM15.0967 28.4299C14.2717 28.3099 15.1904 28.0311 15.0967 28.4299V28.4299ZM20.8204 32.1361C20.5342 32.2536 20.8054 31.8286 20.8204 32.1361V32.1361ZM15.5629 28.9111C15.3854 28.7086 15.4779 28.9549 15.5629 28.9111V28.9111ZM7.11668 23.5449C6.06418 22.7111 6.99668 23.0811 7.11668 23.5449V23.5449ZM10.3342 25.6261C9.00918 25.1999 11.3029 25.5686 10.3342 25.6261V25.6261ZM13.0492 27.5849C12.5242 27.5724 12.9492 27.2861 13.0492 27.5849V27.5849ZM20.2817 32.0461C19.7304 32.4674 20.3254 31.4786 20.2817 32.0461V32.0461ZM10.1754 25.8211C9.76043 25.8499 10.1104 25.5086 10.1754 25.8211V25.8211ZM17.4292 30.4449C15.9067 30.2149 19.1167 30.4599 17.4292 30.4449V30.4449ZM14.3467 28.6636C16.1279 29.1686 12.8504 27.5386 13.9079 28.4799L14.1417 28.5861L14.3442 28.6636H14.3467ZM15.8842 29.8874C14.6117 29.5911 16.1854 29.3724 15.8842 29.8874V29.8874ZM10.8229 26.7974C11.5504 27.3561 13.7592 26.8686 11.9379 26.4649C11.1104 26.0224 9.24043 25.7211 10.5129 26.7299L10.8229 26.7974ZM14.8592 29.5661C13.7717 29.3111 15.5304 29.3136 14.8592 29.5661V29.5661ZM13.3504 28.6399C12.3804 28.3899 13.8192 28.3124 13.3504 28.6399V28.6399ZM11.5542 27.5936C10.5917 27.3049 11.4917 27.3324 11.5542 27.5936V27.5936ZM17.6792 32.3649C18.2992 32.7549 21.3029 33.2236 19.4204 32.5261C19.1079 32.5911 15.9367 31.6299 17.6767 32.3649H17.6792ZM13.8204 29.9561C13.5454 30.0736 13.7992 29.6974 13.8204 29.9561V29.9561ZM13.0492 29.5711C12.0654 29.5649 13.8104 29.0786 13.0492 29.5711V29.5711ZM16.4342 31.9349C15.4817 31.7674 16.7329 31.4949 16.4342 31.9349V31.9349ZM14.6729 30.9511C13.9167 30.6574 15.1604 30.4824 14.6729 30.9511V30.9511ZM13.6429 30.5211C13.2679 30.7524 13.5592 30.1074 13.6429 30.5211V30.5211ZM12.8204 30.2211C12.3367 30.0336 13.1567 30.0711 12.8204 30.2211V30.2211ZM6.64418 24.7586C6.69543 24.5311 6.92043 25.2536 6.64418 24.7586V24.7586ZM11.0079 29.5499C12.5229 30.1111 11.0017 28.4849 10.3054 28.5786C9.99918 28.0461 9.13293 27.7086 9.74293 27.4224C8.64293 27.8036 8.59168 25.9699 8.07168 26.2311C6.90918 25.8636 7.61918 24.5599 6.23418 23.7636C6.10793 22.9199 4.85668 22.1886 4.45668 20.9174C4.28043 20.2674 3.04293 18.3974 3.80418 20.1361C4.61418 21.8686 5.52668 23.3599 6.58043 24.7361L6.53793 24.6774C7.21918 26.1511 8.22043 27.3749 9.45793 28.2999L9.48293 28.3174C9.93543 28.7524 10.3704 29.4161 11.0092 29.5511L11.0079 29.5499ZM13.9817 31.6524C15.3692 32.3661 16.9792 32.9224 18.6729 33.2374L18.7829 33.2549C20.4117 33.6286 22.2817 33.8424 24.2029 33.8424C25.2004 33.8424 26.1854 33.7849 27.1529 33.6724L27.0354 33.6836C25.8017 33.1261 24.5242 33.9024 23.2942 33.2849C22.8567 33.3349 22.3492 33.3624 21.8354 33.3624C20.7367 33.3624 19.6679 33.2336 18.6442 32.9899L18.7379 33.0086C16.6992 32.2661 15.0042 31.5011 13.3729 30.6311L13.5967 30.7399C11.6017 30.0124 14.6279 31.6736 15.1667 31.8099C16.4129 32.5174 13.7967 31.4461 13.4267 31.1524C12.3829 30.5661 12.2492 30.6886 13.3242 31.2836C13.5417 31.4086 13.7554 31.5424 13.9804 31.6511L13.9817 31.6524ZM11.4592 30.5586C9.92418 29.5024 8.60918 28.2736 7.49543 26.8774L7.46668 26.8411C5.37168 24.2699 3.66543 21.2774 2.50293 18.0274L2.43668 17.8174C1.74043 15.7011 1.49918 13.4311 0.60293 11.3974C0.42168 11.0649 0.31543 10.6686 0.31543 10.2474C0.31543 9.03239 1.20418 8.02364 2.36668 7.83739L2.38043 7.83614C3.09918 7.69989 4.36793 7.02114 2.83793 7.50614C1.46668 8.51239 1.33418 6.59239 2.73918 6.47239C3.35043 6.46614 3.84418 5.96989 3.84418 5.35739C3.84418 5.17364 3.79918 4.99989 3.72043 4.84614L3.72293 4.85239C2.69168 4.18114 6.22168 3.44239 4.44668 2.44114C2.59918 0.443641 7.03543 0.0611409 5.94168 2.32614C5.68043 4.06739 9.04043 2.00614 8.26168 4.01739C9.05418 4.98489 11.2292 4.23614 11.1754 5.59364C12.3317 5.67114 12.7267 6.64364 13.8104 6.71864C14.9354 7.22614 16.9692 7.62489 17.3504 8.88989C16.2367 9.77364 13.6579 7.06989 13.5342 9.51114C13.5629 13.3549 14.1342 17.0536 15.1742 20.5511L15.1029 20.2699C15.9404 22.3499 17.1279 24.1261 18.6079 25.6086C19.9567 27.1111 21.5779 28.3361 23.4004 29.2136L23.4929 29.2536C24.9429 29.9386 26.6279 30.4786 28.3904 30.7886L28.5117 30.8061C29.2117 30.2699 30.4492 28.2799 31.5392 29.1186C31.5904 30.0624 29.3704 31.0911 31.4342 30.9874C32.6467 30.6224 33.4867 31.9249 34.4854 30.7499C35.4042 31.8386 38.3067 30.0536 37.6517 32.2811C36.7679 32.8499 35.4779 32.5061 34.5917 33.2899C33.1317 32.5599 31.9679 33.9424 30.3504 33.7674C28.7617 34.0561 26.9329 34.2211 25.0654 34.2211C25.0104 34.2211 24.9542 34.2211 24.8992 34.2211H24.9079C21.7229 34.1649 18.6754 33.6661 15.7954 32.7849L16.0292 32.8461C14.2867 32.2574 12.7754 31.4824 11.4042 30.5211L11.4617 30.5599L11.4592 30.5586Z" fill="white"/>
</svg>
