<svg width="17" height="17" viewBox="0 0 17 17" fill="none" xmlns="http://www.w3.org/2000/svg">
<path d="M8.75 1C4.33 1 0.75 4.52 0.75 8.86133C0.75 12.3353 3.042 15.2813 6.22 16.32C6.62 16.394 6.76667 16.1507 6.76667 15.942C6.76667 15.7553 6.76 15.2607 6.75667 14.6053C4.53133 15.0793 4.062 13.5507 4.062 13.5507C3.698 12.6433 3.172 12.4007 3.172 12.4007C2.44733 11.9133 3.228 11.9233 3.228 11.9233C4.03133 11.978 4.45333 12.7333 4.45333 12.7333C5.16667 13.9353 6.326 13.588 6.78333 13.3873C6.85533 12.8787 7.06133 12.5327 7.29 12.336C5.51333 12.1393 3.646 11.4633 3.646 8.45133C3.646 7.59333 3.956 6.892 4.46933 6.342C4.37933 6.14333 4.10933 5.344 4.53933 4.26133C4.53933 4.26133 5.20933 4.05067 6.73933 5.06733C7.37933 4.89267 8.05933 4.806 8.73933 4.802C9.41933 4.806 10.0993 4.89267 10.7393 5.06733C12.2593 4.05067 12.9293 4.26133 12.9293 4.26133C13.3593 5.344 13.0893 6.14333 13.0093 6.342C13.5193 6.892 13.8293 7.59333 13.8293 8.45133C13.8293 11.4713 11.9593 12.136 10.1793 12.3293C10.4593 12.5653 10.7193 13.0473 10.7193 13.784C10.7193 14.836 10.7093 15.6813 10.7093 15.9367C10.7093 16.1427 10.8493 16.3887 11.2593 16.31C14.46 15.278 16.75 12.33 16.75 8.86133C16.75 4.52 13.168 1 8.75 1Z" fill="#949494"/>
</svg>
