<svg width="14" height="15" viewBox="0 0 14 15" fill="none" xmlns="http://www.w3.org/2000/svg">
<path d="M6.75 13.125C9.8566 13.125 12.375 10.6066 12.375 7.5C12.375 4.3934 9.8566 1.875 6.75 1.875C3.6434 1.875 1.125 4.3934 1.125 7.5C1.125 10.6066 3.6434 13.125 6.75 13.125Z" stroke="#1EB8CD" stroke-width="0.84375" stroke-linecap="round" stroke-linejoin="round"/>
<path d="M4.50015 2.4375H5.06265C3.96577 5.7225 3.96577 9.2775 5.06265 12.5625H4.50015" stroke="#1EB8CD" stroke-width="0.84375" stroke-linecap="round" stroke-linejoin="round"/>
<path d="M8.4375 2.4375C9.53438 5.7225 9.53438 9.2775 8.4375 12.5625" stroke="#1EB8CD" stroke-width="0.84375" stroke-linecap="round" stroke-linejoin="round"/>
<path d="M1.6875 9.75V9.1875C4.9725 10.2844 8.5275 10.2844 11.8125 9.1875V9.75" stroke="#1EB8CD" stroke-width="0.84375" stroke-linecap="round" stroke-linejoin="round"/>
<path d="M1.6875 5.8124C4.9725 4.71553 8.5275 4.71553 11.8125 5.8124" stroke="#1EB8CD" stroke-width="0.84375" stroke-linecap="round" stroke-linejoin="round"/>
</svg>
