<?xml version="1.0" encoding="utf-8"?>
<!-- Svg Vector Icons : http://www.onlinewebfonts.com/icon -->
<!DOCTYPE svg PUBLIC "-//W3C//DTD SVG 1.1//EN" "http://www.w3.org/Graphics/SVG/1.1/DTD/svg11.dtd">
<svg version="1.1" xmlns="http://www.w3.org/2000/svg" xmlns:xlink="http://www.w3.org/1999/xlink" x="0px" y="0px" viewBox="0 0 256 256" enable-background="new 0 0 256 256" xml:space="preserve">
<metadata> Svg Vector Icons : http://www.onlinewebfonts.com/icon </metadata>
<g><g><path fill="#878593" d="M152.3,226.7c-26.6,0-53.3,0.7-79.9-0.7c-9.4-0.5-22.7-0.9-30.6-7c-5.9-4.6-0.2-21.1,1.2-25.8c7.4-23.8,32.7-38.6,55.5-43.9c12.3-2.9,26.7-1.3,39.2-1.3c16.5,0,31.3,1.2,46.3,9.4c20.2,11,32.1,32.7,32.1,55.3C216.1,232,164.5,226.7,152.3,226.7c-12.1,0-12.1,18.8,0,18.8c23,0,60,4.5,77.2-15.1c14.1-16.1,1.9-47.2-7.4-62.3c-25.2-40.9-73.4-40.2-115.5-38.7c-26.9,0.9-55.7,16.5-71,38.7c-10.1,14.6-23.5,45.7-8.9,61.9c17.2,19.1,53.3,15.4,76.2,15.4c16.5,0,33,0,49.6,0C164.4,245.6,164.4,226.7,152.3,226.7z"/><path fill="#878593" d="M128.6,109.9c-53-2.6-53-78.4,0-81C181.6,26.2,181.3,107.2,128.6,109.9c-12.1,0.6-12.1,19.4,0,18.8c33.6-1.7,58.3-25.6,60-59.3c1.7-33.7-29-57.8-60-59.3C95,8.4,70.2,38.2,68.5,69.4c-1.7,33.7,29,57.8,60,59.3C140.7,129.3,140.6,110.5,128.6,109.9z"/></g></g>
</svg>