<svg width="40" height="41" viewBox="0 0 40 41" fill="none" xmlns="http://www.w3.org/2000/svg">
<g clip-path="url(#clip0_0_10294)">
<path d="M40.2153 39.5199L39.3686 38.7133C38.9503 38.1616 38.5053 37.6733 38.0203 37.2283L38.012 37.2216C37.5142 36.7694 36.997 36.3394 36.4603 35.9316C36.0303 35.636 35.4392 35.2799 34.687 34.8633C34.0686 34.5849 33.5853 34.0966 33.3236 33.4899L33.317 33.4733L33.237 33.4333C33.5903 33.3983 33.9137 33.3333 34.2236 33.2416L34.1853 33.2516L35.1353 32.9899C35.5286 32.8666 35.9836 32.7866 36.4553 32.7683H36.4653C36.962 32.7483 37.4303 32.6683 37.877 32.5366L37.8353 32.5466C38.0509 32.4933 38.2725 32.4327 38.5003 32.3649C38.7281 32.2971 38.9231 32.2366 39.0853 32.1833V31.9016C38.9242 31.6605 38.7292 31.3849 38.5003 31.0749C38.282 30.7783 38.037 30.5199 37.762 30.2949L37.7537 30.2883C37.0548 29.6705 36.3309 29.0727 35.582 28.4949C34.922 27.9799 34.1736 27.4549 33.397 26.9683L33.2836 26.9016C32.8736 26.6316 32.4036 26.3816 31.9086 26.1766L31.852 26.1566C31.3542 25.9544 30.8636 25.7327 30.3803 25.4916C30.2187 25.4116 30.0303 25.3416 29.8353 25.2933L29.817 25.2899C29.622 25.2499 29.4553 25.1499 29.3337 25.0083L29.332 25.0066C29.102 24.7033 28.9003 24.3583 28.7403 23.9916L28.727 23.9583C28.5659 23.5816 28.3914 23.2199 28.2037 22.8733C27.8003 22.0933 27.4103 21.3005 27.0336 20.4949C26.657 19.6894 26.2953 18.8827 25.9487 18.0749C25.7075 17.5371 25.4859 16.9999 25.2836 16.4633C25.0603 15.8733 24.8086 15.3683 24.5153 14.8933L24.537 14.9316C23.817 13.7049 23.0986 12.6583 22.3186 11.6633L22.3653 11.7266C21.5936 10.7533 20.7936 9.88325 19.9337 9.07659L19.9203 9.06492C19.072 8.26825 18.1586 7.50825 17.2003 6.80492L17.1187 6.74659C16.1231 6.02325 15.0342 5.31103 13.852 4.60992C13.377 4.32992 12.8253 4.10159 12.2437 3.95492L12.2003 3.94492L10.3453 3.48159L9.29699 3.40159C8.9481 3.37492 8.59865 3.36159 8.24865 3.36159C8.00198 3.23159 7.79032 3.07659 7.60365 2.89659C7.42032 2.72159 7.22199 2.55659 7.01532 2.40492L6.99865 2.39325C5.99032 1.80492 4.81865 1.26659 3.59365 0.843254L3.45199 0.79992C3.13032 0.611587 2.74365 0.501587 2.33199 0.501587C2.03865 0.501587 1.75699 0.558254 1.50032 0.65992L1.51532 0.65492C0.881986 0.906587 0.398652 1.41825 0.190319 2.05492L0.185319 2.07159C0.0636523 2.35825 -0.00634766 2.68992 -0.00634766 3.03992C-0.00634766 3.65325 0.210319 4.21492 0.571986 4.65325L0.568652 4.64825C1.1731 5.45381 1.63643 6.08714 1.95865 6.54825C2.19976 6.87159 2.44865 7.2077 2.70532 7.55659C2.94032 7.86992 3.14865 8.22825 3.31699 8.60659L3.33032 8.64159C3.42365 8.83992 3.50532 9.07659 3.56532 9.31992L3.57032 9.34659C3.62365 9.57548 3.69087 9.82437 3.77199 10.0933C4.0131 10.711 4.24143 11.3444 4.45698 11.9933C4.69199 12.7016 4.95198 13.3016 5.25365 13.8733L5.22198 13.8066C5.3831 14.1021 5.54476 14.391 5.70698 14.6733C5.86921 14.9555 6.04365 15.231 6.23032 15.4999C6.33865 15.6633 6.47532 15.7983 6.63199 15.9033L6.63699 15.9066C6.80199 16.0266 6.91032 16.2149 6.91865 16.4283C6.72865 16.7083 6.60032 17.0449 6.55698 17.4066L6.55532 17.4166C6.49698 17.8383 6.41365 18.2133 6.30032 18.5749L6.31365 18.5249C5.94199 19.6349 5.72865 20.9149 5.72865 22.2433C5.72865 22.6733 5.75032 23.0966 5.79532 23.5149L5.79032 23.4633C5.89032 25.0599 6.37198 26.5266 7.14365 27.7966L7.12032 27.7549C7.44865 28.2466 7.80032 28.6749 8.18865 29.0666C8.46865 29.3799 8.87532 29.5766 9.32865 29.5766C9.58199 29.5766 9.82199 29.5149 10.032 29.4049L10.0237 29.4083C10.607 29.1983 11.022 28.6649 11.052 28.0299V28.0266C11.132 27.2366 11.252 26.5299 11.417 25.8399L11.3953 25.9516C11.4353 25.8466 11.4587 25.7266 11.4587 25.5999C11.4587 25.5749 11.457 25.5499 11.4553 25.5249V25.5283C11.442 25.4071 11.5159 25.2927 11.677 25.1849V25.2649C11.8381 25.6416 12.0059 26.0177 12.1803 26.3933C12.3548 26.7688 12.5359 27.1449 12.7237 27.5216C13.2153 28.2699 13.737 28.9233 14.3103 29.5249L14.3053 29.5199C14.8803 30.1399 15.507 30.6966 16.1837 31.1883L16.2203 31.2133C16.5737 31.4833 16.8837 31.7749 17.1637 32.0933L17.1703 32.0999C17.4337 32.4099 17.7487 32.6649 18.1037 32.8566L18.1203 32.8649V32.8249H18.2003C18.1353 32.6799 18.0303 32.5633 17.9003 32.4833L17.897 32.4816C17.7653 32.4083 17.652 32.3349 17.5453 32.2549L17.5536 32.2599C17.3125 32.0188 17.0637 31.7499 16.807 31.4533C16.5503 31.1566 16.3153 30.8744 16.102 30.6066C15.5375 29.8266 14.9992 29.0116 14.487 28.1616C13.9748 27.3116 13.4909 26.4477 13.0353 25.5699C12.8198 25.1399 12.6114 24.6966 12.4103 24.2399C12.2092 23.7833 12.0142 23.3399 11.8253 22.9099C11.7437 22.7449 11.687 22.5549 11.6653 22.3533V22.3449C11.6553 22.1533 11.5453 21.9883 11.3853 21.9033L11.382 21.9016C11.1803 22.2449 10.957 22.5416 10.702 22.8099L10.7037 22.8083C10.4387 23.0866 10.222 23.4149 10.067 23.7749L10.0587 23.7966C9.82365 24.3666 9.65199 25.0283 9.57698 25.7199L9.57365 25.7516C9.49365 26.4638 9.4131 27.196 9.33199 27.9483L9.25199 27.9883L9.21198 28.0283C8.77865 27.9399 8.42198 27.6633 8.22865 27.2899L8.22532 27.2816C8.0231 26.8916 7.84199 26.5083 7.68199 26.1316C7.26865 25.0699 7.01199 23.8416 6.97698 22.5583V22.5433C6.96199 22.3399 6.95532 22.1016 6.95532 21.8633C6.95532 20.7533 7.13032 19.6833 7.45365 18.6799L7.43365 18.7533C7.51365 18.4577 7.6881 17.9599 7.95699 17.2599C8.22587 16.5599 8.27976 16.076 8.11865 15.8083C8.03532 15.5333 7.88032 15.3016 7.67699 15.1249L7.67532 15.1233C7.47199 14.9466 7.28699 14.7616 7.11699 14.5649L7.11199 14.5583C6.92421 14.2871 6.7431 13.9983 6.56865 13.6916C6.39421 13.3849 6.23976 13.0827 6.10532 12.7849C5.83032 12.1483 5.54865 11.3499 5.31532 10.5299L5.27865 10.3816C5.01365 9.43992 4.71865 8.64325 4.36865 7.87659L4.41199 7.98325C4.22699 7.56325 4.01199 7.19992 3.76199 6.86825L3.77199 6.88159C3.50087 6.51937 3.25865 6.17659 3.04532 5.85325C2.77421 5.50436 2.50532 5.16825 2.23865 4.84492C1.96699 4.51659 1.72532 4.14659 1.52865 3.74992L1.51365 3.71659C1.43365 3.55492 1.36365 3.36659 1.31532 3.17159L1.31199 3.15325C1.29365 3.09492 1.28365 3.02659 1.28365 2.95825C1.28365 2.82159 1.32365 2.69325 1.39365 2.58659L1.39199 2.58992C1.41032 2.49659 1.45365 2.41492 1.51365 2.34825C1.57865 2.28992 1.66199 2.24659 1.75199 2.22825H1.75532C1.89699 2.13659 2.06865 2.08159 2.25532 2.08159C2.39532 2.08159 2.53032 2.11325 2.64865 2.16992L2.64365 2.16825C3.00865 2.27159 3.30365 2.37492 3.59199 2.49325L3.53199 2.47159C4.04199 2.68714 4.51254 2.89548 4.94365 3.09659C5.44032 3.33325 5.86365 3.58325 6.26365 3.86159L6.23365 3.84159C6.44921 3.97603 6.66421 4.12381 6.87865 4.28492C7.0931 4.44603 7.32143 4.6077 7.56365 4.76992H8.12865C8.55865 4.76992 9.01532 4.79048 9.49865 4.83159C9.98699 4.86992 10.4387 4.96159 10.8687 5.10492L10.8287 5.09325C11.6303 5.33159 12.3187 5.61325 12.972 5.95159L12.9037 5.91992C13.5625 6.25548 14.1875 6.61159 14.7787 6.98825C15.7603 7.59992 16.6087 8.22659 17.407 8.91159L17.3787 8.88825C18.212 9.60159 18.9687 10.3333 19.6786 11.1066L19.6953 11.1266C20.3887 11.8833 21.0503 12.7049 21.6553 13.5666L21.707 13.6449C22.2637 14.4316 22.8253 15.3416 23.3303 16.2849L23.4003 16.4266C23.5353 16.6833 23.672 16.9983 23.7903 17.3199L23.8086 17.3749C23.9164 17.6838 24.037 18.0005 24.1703 18.3249C24.4659 18.9971 24.7825 19.6755 25.1203 20.3599C25.4581 21.0444 25.7748 21.7099 26.0703 22.3566L26.957 24.2916C27.2686 24.9683 27.617 25.5516 28.022 26.0899L28.0036 26.0649C28.342 26.4266 28.7936 26.6799 29.3003 26.7683L29.3136 26.7699C29.927 26.9233 30.4436 27.0966 30.9436 27.3016L30.8653 27.2733C31.1036 27.3816 31.4103 27.4966 31.7253 27.5983L31.792 27.6166C32.1453 27.7249 32.452 27.8683 32.7336 28.0483L32.7187 28.0399C33.2636 28.3449 33.7253 28.6449 34.1653 28.9716L34.1303 28.9466C34.587 29.2821 35.0436 29.5988 35.5003 29.8966C35.7159 30.0577 36.0775 30.2927 36.5853 30.6016C37.0931 30.9105 37.362 31.1994 37.392 31.4683C37.202 31.4616 36.977 31.4566 36.752 31.4566C35.932 31.4566 35.1253 31.5099 34.3353 31.6133L34.4286 31.6033C33.5353 31.7233 32.7253 31.9416 31.9636 32.2533L32.0303 32.2299C31.842 32.3116 31.617 32.3866 31.3836 32.4449L31.352 32.4516C31.1153 32.4866 30.932 32.6766 30.9086 32.9133C31.0103 33.0399 31.092 33.1883 31.147 33.3483L31.1503 33.3583C31.207 33.5283 31.2753 33.6749 31.3587 33.8116L31.3536 33.8016C31.552 34.1533 31.7653 34.4566 32.0053 34.7366L31.9986 34.7283C32.2336 35.0183 32.4986 35.2699 32.792 35.4849L32.8036 35.4933C33.0748 35.7088 33.357 35.9305 33.6503 36.1583C33.9186 36.3683 34.222 36.5749 34.537 36.7616L34.577 36.7833C35.0503 37.0733 35.6003 37.3499 36.1736 37.5816L36.2503 37.6083C36.8736 37.8583 37.4086 38.1483 37.9053 38.4933L37.8786 38.4749C38.202 38.6627 38.5242 38.871 38.8453 39.0999C39.1664 39.3288 39.4753 39.5505 39.772 39.7649C39.8937 39.8849 40.0003 40.0183 40.0903 40.1633L40.0953 40.1716C40.247 40.3449 40.457 40.4633 40.6953 40.4933H40.7003V40.4133C40.5536 40.3016 40.4453 40.1466 40.3936 39.9683L40.392 39.9616C40.3503 39.7916 40.2886 39.6433 40.2053 39.5066L40.2086 39.5133L40.2153 39.5199ZM9.25532 7.51159C9.03976 7.51159 8.8381 7.51825 8.65032 7.53159C8.45865 7.54492 8.28032 7.57992 8.11199 7.63659L8.12699 7.63159V7.67159H8.20698C8.31476 7.8327 8.45032 8.01381 8.61365 8.21492C8.77699 8.41603 8.92476 8.61103 9.05698 8.79992L9.70199 10.1299L9.78199 10.0899C9.97032 9.95325 10.1153 9.76992 10.202 9.55492L10.2053 9.54659C10.292 9.31492 10.342 9.04492 10.342 8.76492C10.342 8.73492 10.342 8.70492 10.3403 8.67492V8.67992C10.2653 8.60659 10.2037 8.51992 10.1603 8.42325L10.1587 8.41825L10.0237 8.11492C9.93532 7.97492 9.81199 7.86492 9.66699 7.79492L9.66199 7.79325C9.50532 7.71825 9.37199 7.62325 9.25532 7.51159Z" fill="white"/>
</g>
<defs>
<clipPath id="clip0_0_10294">
<rect width="40" height="40" fill="white" transform="translate(0 0.5)"/>
</clipPath>
</defs>
</svg>
