<svg width="17" height="17" viewBox="0 0 17 17" fill="none" xmlns="http://www.w3.org/2000/svg">
<path d="M12.9167 10.5L12.9167 5.83333" stroke="#949494" stroke-width="1.125" stroke-linecap="round" stroke-linejoin="round"/>
<path d="M12.7501 10.8333C11.5535 10.8333 10.5834 11.8033 10.5834 13C10.5834 14.1966 11.5535 15.1666 12.7501 15.1666C13.9467 15.1666 14.9167 14.1966 14.9167 13C14.9167 11.8033 13.9467 10.8333 12.7501 10.8333Z" stroke="#949494" stroke-width="1.125" stroke-linecap="round" stroke-linejoin="round"/>
<path d="M12.9167 1.83337C11.8122 1.83337 10.9167 2.7288 10.9167 3.83337C10.9167 4.93794 11.8122 5.83337 12.9167 5.83337C14.0213 5.83337 14.9167 4.93794 14.9167 3.83337C14.9167 2.7288 14.0213 1.83337 12.9167 1.83337Z" stroke="#949494" stroke-width="1.125" stroke-linecap="round" stroke-linejoin="round"/>
<path d="M3.58325 1.83337C2.47868 1.83337 1.58325 2.7288 1.58325 3.83337C1.58325 4.93794 2.47868 5.83337 3.58325 5.83337C4.68782 5.83337 5.58325 4.93794 5.58325 3.83337C5.58325 2.7288 4.68782 1.83337 3.58325 1.83337Z" stroke="#949494" stroke-width="1.125" stroke-linecap="round" stroke-linejoin="round"/>
<path d="M12.8301 10.5C12.5301 9.33333 11.4634 8.46666 10.2034 8.47333L7.91674 8.48C6.17008 8.48667 4.68341 7.36666 4.13674 5.80666" stroke="#949494" stroke-width="1.125" stroke-linecap="round" stroke-linejoin="round"/>
</svg>
