<svg width="40" height="41" viewBox="0 0 40 41" fill="none" xmlns="http://www.w3.org/2000/svg">
<g clip-path="url(#clip0_0_10312)">
<path d="M39.2431 24.4524C39.0106 23.7481 38.4014 23.2575 37.6134 23.1397C37.2419 23.0842 36.8164 23.1079 36.313 23.2117C35.4355 23.3928 34.7844 23.4616 34.3093 23.4751C36.1027 20.447 37.561 16.9939 38.4006 13.7434C39.758 8.48764 39.0326 6.09328 38.1849 5.01017C35.9415 2.14363 32.6684 0.603582 28.7194 0.556373C26.6131 0.530664 24.7637 0.946581 23.7991 1.2456C22.9009 1.08722 21.9351 0.998717 20.9216 0.982323C19.0223 0.952046 17.3439 1.36608 15.9099 2.21709C15.1157 1.94871 13.8417 1.57023 12.3701 1.32864C8.90914 0.760435 6.11982 1.20323 4.07956 2.64456C1.60896 4.38974 0.463597 7.42183 0.675452 11.6567C0.742637 13.0013 1.49483 17.0921 2.67907 20.9719C3.3597 23.2018 4.08547 25.0536 4.83624 26.4764C5.90089 28.4938 7.04007 29.6819 8.31899 30.1084C9.0359 30.3473 10.3383 30.5145 11.7082 29.3738C11.8818 29.584 12.1134 29.7929 12.4209 29.987C12.8113 30.2332 13.2888 30.4344 13.7655 30.5536C15.4839 30.9833 17.0935 30.8758 18.4666 30.2737C18.4751 30.5179 18.4816 30.7513 18.4871 30.9527C18.4963 31.2796 18.5052 31.6 18.5172 31.8997C18.5986 33.9261 18.7364 35.5017 19.1449 36.6041C19.1673 36.6648 19.1975 36.7572 19.2294 36.8551C19.4331 37.4791 19.774 38.5236 20.6408 39.3417C21.5387 40.1891 22.6246 40.449 23.6191 40.4489C24.1178 40.4489 24.5938 40.3836 25.0111 40.2941C26.4991 39.9753 28.189 39.4894 29.4114 37.7488C30.567 36.1034 31.1289 33.6251 31.2305 29.7199C31.2437 29.6096 31.2559 29.5041 31.2676 29.4036C31.2755 29.3358 31.2836 29.2665 31.2917 29.1973L31.564 29.2212L31.6342 29.226C33.1497 29.2951 35.0027 28.9736 36.1407 28.445C37.04 28.0277 39.9216 26.5065 39.2431 24.4524Z" fill="black"/>
<path d="M36.6518 24.8519C32.1458 25.7814 31.836 24.2558 31.836 24.2558C36.5936 17.1962 38.5825 8.23513 36.8661 6.04196C32.1838 0.0594015 24.0785 2.88877 23.9432 2.96222L23.8997 2.97002C23.0095 2.78521 22.0132 2.67512 20.8934 2.65685C18.8545 2.62343 17.3079 3.19137 16.1343 4.08134C16.1343 4.08134 1.67523 -1.87524 2.3477 11.5729C2.49076 14.4338 6.44829 33.2203 11.1687 27.5459C12.894 25.471 14.561 23.7166 14.561 23.7166C15.3889 24.2666 16.3801 24.5472 17.4193 24.4464L17.5 24.3779C17.4749 24.6355 17.4864 24.8875 17.5323 25.1858C16.3163 26.5444 16.6736 26.783 14.2427 27.2834C11.7829 27.7903 13.2279 28.6928 14.1714 28.9287C15.3151 29.2147 17.9612 29.6199 19.7491 27.117L19.6778 27.4026C20.1543 27.7842 20.4889 29.8849 20.4328 31.7892C20.3767 33.6936 20.3393 35.001 20.7147 36.0222C21.0901 37.0434 21.4643 39.3411 24.66 38.6564C27.3302 38.0841 28.714 36.6013 28.9065 34.1277C29.0431 32.3692 29.3522 32.6291 29.3717 31.0569L29.6197 30.3126C29.9056 27.9288 29.6651 27.1598 31.3102 27.5175L31.71 27.5526C32.9209 27.6077 34.5056 27.3578 35.4357 26.9255C37.4385 25.996 38.6264 24.4442 36.6516 24.8519H36.6518Z" fill="#336791"/>
<path d="M16.9812 12.8523C16.5752 12.7958 16.2074 12.8481 16.0213 12.989C15.9166 13.0682 15.8843 13.16 15.8756 13.2233C15.8522 13.3907 15.9696 13.5758 16.0416 13.6713C16.2455 13.9415 16.5434 14.1273 16.8383 14.1683C16.881 14.1742 16.9235 14.177 16.9658 14.177C17.4576 14.177 17.9046 13.7942 17.944 13.5116C17.9932 13.1576 17.4794 12.9217 16.9812 12.8523Z" fill="white"/>
<path d="M30.4325 12.8634C30.3938 12.586 29.9 12.5069 29.4315 12.572C28.9637 12.6372 28.51 12.8484 28.5479 13.1264C28.5783 13.3427 28.9686 13.7118 29.4309 13.7117C29.4698 13.7117 29.5092 13.7091 29.5489 13.7036C29.8574 13.6608 30.0838 13.4649 30.1913 13.352C30.3551 13.18 30.4498 12.9881 30.4325 12.8634Z" fill="white"/>
<path d="M38.1511 24.7463C37.9793 24.2267 37.4263 24.0595 36.5075 24.2493C33.7794 24.8123 32.8025 24.4222 32.4816 24.186C34.6021 20.9556 36.3465 17.0509 37.2875 13.4077C37.7334 11.6819 37.9796 10.0792 37.9997 8.773C38.0219 7.33901 37.7778 6.28547 37.2741 5.64184C35.2434 3.04708 32.2632 1.65529 28.6556 1.61704C26.1755 1.58918 24.0801 2.22394 23.6738 2.40238C22.8183 2.18963 21.8857 2.05902 20.8705 2.04236C19.0086 2.01226 17.3993 2.45801 16.0668 3.36652C15.488 3.15118 13.9922 2.63771 12.1631 2.34308C9.00061 1.83382 6.48764 2.21964 4.69426 3.49014C2.55439 5.00619 1.56651 7.71614 1.75794 11.5446C1.82235 12.8327 2.55618 16.7951 3.71444 20.5899C5.23899 25.5844 6.89612 28.4118 8.63988 28.9934C8.84394 29.0615 9.07935 29.1091 9.33878 29.1091C9.97488 29.1091 10.7547 28.8224 11.5661 27.847C12.9138 26.2256 14.1721 24.8669 14.636 24.3732C15.3214 24.7412 16.0743 24.9466 16.8446 24.9673C16.846 24.9874 16.848 25.0076 16.8498 25.0276C16.6953 25.2109 16.5685 25.3715 16.4605 25.5087C15.9269 26.1861 15.8158 26.3271 14.098 26.6808C13.6095 26.7816 12.3116 27.0491 12.2927 27.9588C12.272 28.9526 13.8266 29.3701 14.0038 29.4143C14.6211 29.5689 15.2157 29.6451 15.7828 29.6451C17.1622 29.645 18.3759 29.1917 19.346 28.3147C19.316 31.858 19.4638 35.3495 19.8893 36.4133C20.2376 37.2841 21.0889 39.4126 23.7778 39.4124C24.1722 39.4124 24.6066 39.3665 25.0843 39.2641C27.8905 38.6624 29.109 37.4222 29.5805 34.6879C29.8328 33.2266 30.2657 29.7369 30.4692 27.8651C30.8989 27.9992 31.4522 28.0605 32.0502 28.0604C33.2975 28.0604 34.7367 27.7955 35.6393 27.3765C36.6531 26.9057 38.4829 25.7501 38.1511 24.7463ZM31.4684 12.0976C31.4591 12.6503 31.383 13.1519 31.3024 13.6756C31.2157 14.2388 31.1259 14.821 31.1033 15.5279C31.081 16.2158 31.1669 16.931 31.2501 17.6225C31.4179 19.0194 31.5902 20.4576 30.9233 21.8768C30.8196 21.6927 30.7196 21.4918 30.6279 21.2694C30.545 21.0685 30.365 20.7457 30.1159 20.299C29.1463 18.5603 26.8758 14.4885 28.0381 12.827C28.3843 12.3323 29.2628 11.824 31.4684 12.0976ZM28.7951 2.73606C32.0274 2.80746 34.5843 4.01669 36.3947 6.32999C37.7832 8.10438 36.2542 16.1782 31.828 23.1434C31.7843 23.0879 31.7398 23.0318 31.6938 22.9743C31.6754 22.9513 31.6567 22.9279 31.6378 22.9042C32.7815 21.0153 32.5578 19.1464 32.3588 17.4893C32.277 16.8093 32.1998 16.1671 32.2194 15.5638C32.2397 14.9242 32.3243 14.3759 32.406 13.8456C32.5066 13.192 32.6088 12.5159 32.5806 11.7187C32.6016 11.6352 32.6102 11.5363 32.5991 11.4191C32.5271 10.6546 31.6544 8.36703 29.8756 6.29622C28.9026 5.16376 27.4836 3.8963 25.5462 3.04144C26.3796 2.86873 27.5192 2.70767 28.7951 2.73606ZM10.7075 27.133C9.81355 28.2078 9.19616 28.0018 8.99318 27.9342C7.67036 27.4929 6.13559 24.6973 4.78241 20.2639C3.61152 16.4278 2.92722 12.5704 2.87311 11.4888C2.70211 8.06792 3.53134 5.68376 5.33789 4.4026C8.27789 2.31764 13.1116 3.56557 15.0539 4.19854C15.0259 4.22604 14.9969 4.25184 14.9692 4.27979C11.7821 7.49864 11.8577 12.9981 11.8655 13.3342C11.8652 13.4639 11.876 13.6476 11.891 13.9002C11.9458 14.8251 12.0478 16.5466 11.7752 18.4962C11.5218 20.3079 12.0803 22.0811 13.3071 23.3612C13.4342 23.4937 13.5667 23.6181 13.7037 23.7352C13.1575 24.32 11.9707 25.6133 10.7075 27.133ZM14.1134 22.5886C13.1245 21.5569 12.6754 20.1217 12.8811 18.6508C13.169 16.5913 13.0627 14.7977 13.0056 13.8341C12.9976 13.6992 12.9906 13.5811 12.9864 13.4878C13.452 13.075 15.6097 11.9188 17.1484 12.2714C17.8507 12.4323 18.2784 12.9104 18.4563 13.7329C19.377 17.9909 18.5783 19.7656 17.9364 21.1917C17.8041 21.4856 17.6792 21.7633 17.5724 22.0506L17.4897 22.2727C17.2803 22.8343 17.0854 23.3563 16.9647 23.8522C15.9135 23.8489 14.8909 23.4 14.1134 22.5886ZM14.2747 28.331C13.9678 28.2544 13.6917 28.1212 13.5297 28.0107C13.665 27.947 13.9058 27.8605 14.3233 27.7745C16.3442 27.3584 16.6562 27.0648 17.3377 26.1995C17.494 26.0012 17.6711 25.7762 17.9164 25.5023L17.9166 25.5019C18.282 25.0929 18.4491 25.1623 18.7521 25.2879C18.9978 25.3896 19.2369 25.6974 19.334 26.0362C19.3798 26.1962 19.4314 26.5 19.2627 26.7362C17.8391 28.7295 15.7646 28.7039 14.2747 28.331ZM24.8503 38.1723C22.3781 38.702 21.5029 37.4406 20.9261 35.9987C20.5538 35.0677 20.3708 30.8697 20.5006 26.2339C20.5023 26.1722 20.4936 26.1126 20.4765 26.0566C20.4618 25.9485 20.439 25.8391 20.4075 25.729C20.2143 25.0545 19.744 24.4902 19.1796 24.2563C18.9554 24.1635 18.5438 23.993 18.0492 24.1195C18.1547 23.6849 18.3377 23.1943 18.5359 22.6629L18.6191 22.4393C18.7128 22.1873 18.8302 21.9263 18.9546 21.65C19.6263 20.1578 20.5461 18.1141 19.5478 13.4969C19.1738 11.7675 17.9251 10.9231 16.032 11.1192C14.897 11.2366 13.8588 11.6945 13.3409 11.9571C13.2296 12.0135 13.1277 12.068 13.0326 12.1211C13.1771 10.3786 13.7232 7.12232 15.766 5.06208C17.0521 3.76497 18.765 3.12439 20.8521 3.15888C24.9642 3.22624 27.6011 5.33655 29.0893 7.09509C30.3717 8.6105 31.0661 10.1369 31.3432 10.9602C29.2592 10.7483 27.8418 11.1598 27.1232 12.187C25.56 14.4214 27.9784 18.7585 29.1407 20.8428C29.3538 21.2249 29.5378 21.555 29.5956 21.6953C29.9741 22.6126 30.4641 23.2249 30.8219 23.672C30.9315 23.809 31.038 23.9418 31.1188 24.0578C30.4877 24.2399 29.3539 24.6603 29.4571 26.7619C29.3738 27.8165 28.7812 32.7538 28.4802 34.4981C28.0828 36.8027 27.2348 37.6611 24.8503 38.1723ZM35.1691 26.3637C34.5237 26.6633 33.4435 26.8881 32.4174 26.9363C31.284 26.9894 30.7071 26.8094 30.5714 26.6986C30.5076 25.389 30.9952 25.2521 31.5111 25.1073C31.5922 25.0844 31.6713 25.0623 31.7476 25.0356C31.7951 25.0742 31.847 25.1125 31.9039 25.1501C32.8148 25.7513 34.4396 25.8162 36.7333 25.3428C36.7417 25.341 36.7502 25.3394 36.7585 25.3377C36.4492 25.6269 35.9198 26.0152 35.1691 26.3637Z" fill="white"/>
</g>
<defs>
<clipPath id="clip0_0_10312">
<rect width="40" height="40" fill="white" transform="translate(0 0.5)"/>
</clipPath>
</defs>
</svg>
