<svg width="20" height="20" viewBox="0 0 20 20" fill="none" xmlns="http://www.w3.org/2000/svg">
<path d="M15.0586 7.09178L7.92522 3.52511C3.13355 1.12511 1.16689 3.09178 3.56689 7.88345L4.29189 9.33345C4.50022 9.75845 4.50022 10.2501 4.29189 10.6751L3.56689 12.1168C1.16689 16.9084 3.12522 18.8751 7.92522 16.4751L15.0586 12.9084C18.2586 11.3084 18.2586 8.69178 15.0586 7.09178ZM12.3669 10.6251H7.86689C7.52522 10.6251 7.24189 10.3418 7.24189 10.0001C7.24189 9.65845 7.52522 9.37511 7.86689 9.37511H12.3669C12.7086 9.37511 12.9919 9.65845 12.9919 10.0001C12.9919 10.3418 12.7086 10.6251 12.3669 10.6251Z" fill="#1EB8CD"/>
</svg>
