<svg width="40" height="41" viewBox="0 0 40 41" fill="none" xmlns="http://www.w3.org/2000/svg">
<path d="M39.0416 0.8125H12.7517V13.9941H25.6876C26.1484 13.9941 26.5223 14.3679 26.5223 14.8288V27.5861H39.8763V1.64875C39.8767 1.4271 39.7889 1.21439 39.6324 1.05752C39.4758 0.900653 39.2632 0.8125 39.0416 0.8125Z" fill="#8E75FF"/>
<path opacity="0.405" d="M12.7505 0.8125V13.9941H0.417394C0.247921 13.9938 0.0953903 13.8912 0.0311828 13.7343C-0.0330247 13.5775 0.00379175 13.3974 0.124403 13.2784L12.7505 0.8125ZM27.2337 40.0657C27.1137 40.1836 26.9346 40.2181 26.7793 40.1531C26.6241 40.0882 26.5229 39.9364 26.5226 39.7681V27.5861H39.8766L27.2337 40.0642V40.0657Z" fill="#8E75FF"/>
<path opacity="0.405" d="M12.7505 13.9941H26.106C26.3349 13.9941 26.5226 14.1803 26.5226 14.4107V27.5861H13.5867C13.1257 27.5861 12.752 27.2124 12.752 26.7514V13.9941H12.7505Z" fill="#8E75FF"/>
</svg>
